<svg width="1280" height="800" xmlns="http://www.w3.org/2000/svg"><g><path d="M-2.4276519510895014,-27.25558649469167L-47.05729992501438,203.24173621367663L-1.1189252426847816,31.329275337979198Z" fill="#eff6f8" stroke="#eff6f8"/><path d="M-2.4276519510895014,-27.25558649469167L-1.1189252426847816,31.329275337979198L63.17495772615075,43.27333128545433Z" fill="#f4faf8" stroke="#f4faf8"/><path d="M-2.4276519510895014,-27.25558649469167L63.17495772615075,43.27333128545433L32.2663812590763,-52.794507204554975Z" fill="#f7fcf8" stroke="#f7fcf8"/><path d="M32.2663812590763,-52.794507204554975L63.17495772615075,43.27333128545433L131.3616392472759,-23.996734825894237Z" fill="#f4fbf5" stroke="#f4fbf5"/><path d="M32.2663812590763,-52.794507204554975L131.3616392472759,-23.996734825894237L215.81790120247751,-28.500057542696595Z" fill="#f3fbf1" stroke="#f3fbf1"/><path d="M32.2663812590763,-52.794507204554975L215.81790120247751,-28.500057542696595L400.6189215481281,-51.541716075502336Z" fill="#eaf7e7" stroke="#eaf7e7"/><path d="M32.2663812590763,-52.794507204554975L400.6189215481281,-51.541716075502336L501.34556913748384,-59.945663103833795Z" fill="#e0f3dc" stroke="#e0f3dc"/><path d="M131.3616392472759,-23.996734825894237L63.17495772615075,43.27333128545433L122.07862094789743,21.72173537313938Z" fill="#eff8f2" stroke="#eff8f2"/><path d="M131.3616392472759,-23.996734825894237L122.07862094789743,21.72173537313938L159.5310181370005,26.83282293751836Z" fill="#eef8f0" stroke="#eef8f0"/><path d="M131.3616392472759,-23.996734825894237L159.5310181370005,26.83282293751836L180.02613970264792,-11.620070777833462Z" fill="#edf8ee" stroke="#edf8ee"/><path d="M131.3616392472759,-23.996734825894237L180.02613970264792,-11.620070777833462L215.81790120247751,-28.500057542696595Z" fill="#eef9ec" stroke="#eef9ec"/><path d="M180.02613970264792,-11.620070777833462L159.5310181370005,26.83282293751836L235.62185035366565,23.527418810874224Z" fill="#e7f5ea" stroke="#e7f5ea"/><path d="M180.02613970264792,-11.620070777833462L235.62185035366565,23.527418810874224L215.81790120247751,-28.500057542696595Z" fill="#e8f6e8" stroke="#e8f6e8"/><path d="M215.81790120247751,-28.500057542696595L235.62185035366565,23.527418810874224L304.52145275473595,-16.795801755972207Z" fill="#e4f4e3" stroke="#e4f4e3"/><path d="M215.81790120247751,-28.500057542696595L304.52145275473595,-16.795801755972207L400.6189215481281,-51.541716075502336Z" fill="#e0f3dd" stroke="#e0f3dd"/><path d="M304.52145275473595,-16.795801755972207L235.62185035366565,23.527418810874224L290.68120162468404,63.77238307520747Z" fill="#ddf1e0" stroke="#ddf1e0"/><path d="M304.52145275473595,-16.795801755972207L290.68120162468404,63.77238307520747L400.62699229922146,35.029026579111814Z" fill="#d5edd9" stroke="#d5edd9"/><path d="M304.52145275473595,-16.795801755972207L400.62699229922146,35.029026579111814L400.6189215481281,-51.541716075502336Z" fill="#d6efd5" stroke="#d6efd5"/><path d="M400.6189215481281,-51.541716075502336L400.62699229922146,35.029026579111814L422.829060100019,-12.902119640260935Z" fill="#d0ecd0" stroke="#d0ecd0"/><path d="M400.6189215481281,-51.541716075502336L422.829060100019,-12.902119640260935L501.34556913748384,-59.945663103833795Z" fill="#ceebcb" stroke="#ceebcb"/><path d="M422.829060100019,-12.902119640260935L400.62699229922146,35.029026579111814L463.7661673417315,22.580858569592237Z" fill="#cae9cc" stroke="#cae9cc"/><path d="M422.829060100019,-12.902119640260935L463.7661673417315,22.580858569592237L501.34556913748384,-59.945663103833795Z" fill="#c9e9c9" stroke="#c9e9c9"/><path d="M501.34556913748384,-59.945663103833795L463.7661673417315,22.580858569592237L493.37337504979223,19.872671167366207Z" fill="#c4e6c6" stroke="#c4e6c6"/><path d="M501.34556913748384,-59.945663103833795L493.37337504979223,19.872671167366207L616.6794706564397,6.04868433624506Z" fill="#bce3bf" stroke="#bce3bf"/><path d="M501.34556913748384,-59.945663103833795L616.6794706564397,6.04868433624506L608.857170608826,-54.694735411554575Z" fill="#b9e1ba" stroke="#b9e1ba"/><path d="M501.34556913748384,-59.945663103833795L608.857170608826,-54.694735411554575L821.7949554026127,-63.377273230813444Z" fill="#acdbb4" stroke="#acdbb4"/><path d="M608.857170608826,-54.694735411554575L616.6794706564397,6.04868433624506L695.0791641138494,-42.16552267502993Z" fill="#addbb4" stroke="#addbb4"/><path d="M608.857170608826,-54.694735411554575L695.0791641138494,-42.16552267502993L721.9706490915269,-55.24566092994064Z" fill="#a7d8b1" stroke="#a7d8b1"/><path d="M608.857170608826,-54.694735411554575L721.9706490915269,-55.24566092994064L821.7949554026127,-63.377273230813444Z" fill="#a0d5ae" stroke="#a0d5ae"/><path d="M695.0791641138494,-42.16552267502993L616.6794706564397,6.04868433624506L676.1823029220104,65.27383395377547Z" fill="#a3d7b2" stroke="#a3d7b2"/><path d="M695.0791641138494,-42.16552267502993L676.1823029220104,65.27383395377547L766.7044759485871,30.131461527198553Z" fill="#9ad2ad" stroke="#9ad2ad"/><path d="M695.0791641138494,-42.16552267502993L766.7044759485871,30.131461527198553L721.9706490915269,-55.24566092994064Z" fill="#9dd3ad" stroke="#9dd3ad"/><path d="M721.9706490915269,-55.24566092994064L766.7044759485871,30.131461527198553L780.9691726714373,11.6736154621467Z" fill="#98cfaa" stroke="#98cfaa"/><path d="M721.9706490915269,-55.24566092994064L780.9691726714373,11.6736154621467L821.7949554026127,-63.377273230813444Z" fill="#9acea9" stroke="#9acea9"/><path d="M821.7949554026127,-63.377273230813444L780.9691726714373,11.6736154621467L901.0552412476391,33.654918615706265Z" fill="#90c6a4" stroke="#90c6a4"/><path d="M821.7949554026127,-63.377273230813444L901.0552412476391,33.654918615706265L894.2995954854414,-56.77815278619528Z" fill="#8fc3a1" stroke="#8fc3a1"/><path d="M821.7949554026127,-63.377273230813444L894.2995954854414,-56.77815278619528L987.8720030710101,-64.7527264803648Z" fill="#8bc09e" stroke="#8bc09e"/><path d="M894.2995954854414,-56.77815278619528L901.0552412476391,33.654918615706265L947.1416795691475,-8.561091328971088Z" fill="#87be9d" stroke="#87be9d"/><path d="M894.2995954854414,-56.77815278619528L947.1416795691475,-8.561091328971088L987.8720030710101,-64.7527264803648Z" fill="#86bc9a" stroke="#86bc9a"/><path d="M947.1416795691475,-8.561091328971088L901.0552412476391,33.654918615706265L939.3948714956641,47.27710825018585Z" fill="#80b99b" stroke="#80b99b"/><path d="M947.1416795691475,-8.561091328971088L939.3948714956641,47.27710825018585L1000.5151421967894,39.64669100288302Z" fill="#7cb598" stroke="#7cb598"/><path d="M947.1416795691475,-8.561091328971088L1000.5151421967894,39.64669100288302L987.8720030710101,-64.7527264803648Z" fill="#7fb797" stroke="#7fb797"/><path d="M987.8720030710101,-64.7527264803648L1000.5151421967894,39.64669100288302L1054.2812243141234,5.967901605181396Z" fill="#7db295" stroke="#7db295"/><path d="M987.8720030710101,-64.7527264803648L1054.2812243141234,5.967901605181396L1056.2675240300596,-34.60301148891449Z" fill="#80b194" stroke="#80b194"/><path d="M987.8720030710101,-64.7527264803648L1056.2675240300596,-34.60301148891449L1128.861605502665,-40.594392956234515Z" fill="#80ad92" stroke="#80ad92"/><path d="M987.8720030710101,-64.7527264803648L1128.861605502665,-40.594392956234515L1232.2430678373203,-40.14285384397954Z" fill="#80a58f" stroke="#80a58f"/><path d="M987.8720030710101,-64.7527264803648L1232.2430678373203,-40.14285384397954L1397.1868774639443,-48.14770627673715Z" fill="#809889" stroke="#809889"/><path d="M1056.2675240300596,-34.60301148891449L1054.2812243141234,5.967901605181396L1128.861605502665,-40.594392956234515Z" fill="#7faa91" stroke="#7faa91"/><path d="M1128.861605502665,-40.594392956234515L1054.2812243141234,5.967901605181396L1093.0030984785408,86.84686260856688Z" fill="#79a58f" stroke="#79a58f"/><path d="M1128.861605502665,-40.594392956234515L1093.0030984785408,86.84686260856688L1188.551899655722,12.559141304343939Z" fill="#799e8c" stroke="#799e8c"/><path d="M1128.861605502665,-40.594392956234515L1188.551899655722,12.559141304343939L1195.4321307186037,5.5608243979513645Z" fill="#7d9b8b" stroke="#7d9b8b"/><path d="M1128.861605502665,-40.594392956234515L1195.4321307186037,5.5608243979513645L1232.2430678373203,-40.14285384397954Z" fill="#7f9b8a" stroke="#7f9b8a"/><path d="M1232.2430678373203,-40.14285384397954L1195.4321307186037,5.5608243979513645L1271.3775495514274,31.8207964906469Z" fill="#7c9288" stroke="#7c9288"/><path d="M1232.2430678373203,-40.14285384397954L1271.3775495514274,31.8207964906469L1289.356559291482,-17.25122891459614Z" fill="#7d8f86" stroke="#7d8f86"/><path d="M1232.2430678373203,-40.14285384397954L1289.356559291482,-17.25122891459614L1397.1868774639443,-48.14770627673715Z" fill="#808983" stroke="#808983"/><path d="M1289.356559291482,-17.25122891459614L1271.3775495514274,31.8207964906469L1386.1850664876401,12.381767582148314Z" fill="#7a8582" stroke="#7a8582"/><path d="M1289.356559291482,-17.25122891459614L1386.1850664876401,12.381767582148314L1397.1868774639443,-48.14770627673715Z" fill="#7e8280" stroke="#7e8280"/><path d="M1397.1868774639443,-48.14770627673715L1386.1850664876401,12.381767582148314L1395.6660075690597,196.00251851975918Z" fill="#74797d" stroke="#74797d"/><path d="M-1.1189252426847816,31.329275337979198L-47.05729992501438,203.24173621367663L-3.0188489593565464,116.58574372436851Z" fill="#e8f2f6" stroke="#e8f2f6"/><path d="M-1.1189252426847816,31.329275337979198L-3.0188489593565464,116.58574372436851L64.6964112855494,71.23122801072896Z" fill="#ebf5f5" stroke="#ebf5f5"/><path d="M-1.1189252426847816,31.329275337979198L64.6964112855494,71.23122801072896L63.17495772615075,43.27333128545433Z" fill="#eef6f5" stroke="#eef6f5"/><path d="M63.17495772615075,43.27333128545433L64.6964112855494,71.23122801072896L93.67515151109546,78.49098086357117Z" fill="#eaf4f2" stroke="#eaf4f2"/><path d="M63.17495772615075,43.27333128545433L93.67515151109546,78.49098086357117L122.07862094789743,21.72173537313938Z" fill="#ebf5f1" stroke="#ebf5f1"/><path d="M122.07862094789743,21.72173537313938L93.67515151109546,78.49098086357117L159.5310181370005,26.83282293751836Z" fill="#e9f5ef" stroke="#e9f5ef"/><path d="M159.5310181370005,26.83282293751836L93.67515151109546,78.49098086357117L151.46552105341107,128.7966276872903Z" fill="#e4f1ed" stroke="#e4f1ed"/><path d="M159.5310181370005,26.83282293751836L151.46552105341107,128.7966276872903L248.5299403797835,83.12788479495794Z" fill="#dfefe7" stroke="#dfefe7"/><path d="M159.5310181370005,26.83282293751836L248.5299403797835,83.12788479495794L235.62185035366565,23.527418810874224Z" fill="#e0f1e6" stroke="#e0f1e6"/><path d="M235.62185035366565,23.527418810874224L248.5299403797835,83.12788479495794L290.68120162468404,63.77238307520747Z" fill="#daeee0" stroke="#daeee0"/><path d="M290.68120162468404,63.77238307520747L248.5299403797835,83.12788479495794L329.0944146309048,135.5482239117846Z" fill="#d2e9db" stroke="#d2e9db"/><path d="M290.68120162468404,63.77238307520747L329.0944146309048,135.5482239117846L411.0948916133493,81.3767817709595Z" fill="#cae6d4" stroke="#cae6d4"/><path d="M290.68120162468404,63.77238307520747L411.0948916133493,81.3767817709595L400.62699229922146,35.029026579111814Z" fill="#cce8d2" stroke="#cce8d2"/><path d="M400.62699229922146,35.029026579111814L411.0948916133493,81.3767817709595L463.7661673417315,22.580858569592237Z" fill="#c6e6cb" stroke="#c6e6cb"/><path d="M463.7661673417315,22.580858569592237L411.0948916133493,81.3767817709595L448.39081169478595,108.62283274438232Z" fill="#c0e3c8" stroke="#c0e3c8"/><path d="M463.7661673417315,22.580858569592237L448.39081169478595,108.62283274438232L527.7643992900848,75.1581873157993Z" fill="#bae0c3" stroke="#bae0c3"/><path d="M463.7661673417315,22.580858569592237L527.7643992900848,75.1581873157993L493.37337504979223,19.872671167366207Z" fill="#bce2c2" stroke="#bce2c2"/><path d="M493.37337504979223,19.872671167366207L527.7643992900848,75.1581873157993L616.6794706564397,6.04868433624506Z" fill="#b5debc" stroke="#b5debc"/><path d="M616.6794706564397,6.04868433624506L527.7643992900848,75.1581873157993L597.6133774230257,122.60009408835322Z" fill="#aad9b7" stroke="#aad9b7"/><path d="M616.6794706564397,6.04868433624506L597.6133774230257,122.60009408835322L676.1823029220104,65.27383395377547Z" fill="#a2d4b2" stroke="#a2d4b2"/><path d="M676.1823029220104,65.27383395377547L597.6133774230257,122.60009408835322L676.2300692405552,124.64352066721767Z" fill="#99cfaf" stroke="#99cfaf"/><path d="M676.1823029220104,65.27383395377547L676.2300692405552,124.64352066721767L728.4282407313585,114.00977257080376Z" fill="#91ccab" stroke="#91ccab"/><path d="M676.1823029220104,65.27383395377547L728.4282407313585,114.00977257080376L766.7044759485871,30.131461527198553Z" fill="#91cbaa" stroke="#91cbaa"/><path d="M766.7044759485871,30.131461527198553L728.4282407313585,114.00977257080376L835.1182632874697,117.92385609261692Z" fill="#89c4a5" stroke="#89c4a5"/><path d="M766.7044759485871,30.131461527198553L835.1182632874697,117.92385609261692L780.9691726714373,11.6736154621467Z" fill="#8cc5a5" stroke="#8cc5a5"/><path d="M780.9691726714373,11.6736154621467L835.1182632874697,117.92385609261692L901.0552412476391,33.654918615706265Z" fill="#87c0a1" stroke="#87c0a1"/><path d="M901.0552412476391,33.654918615706265L835.1182632874697,117.92385609261692L897.3569215480238,128.01515123434365Z" fill="#7db89c" stroke="#7db89c"/><path d="M901.0552412476391,33.654918615706265L897.3569215480238,128.01515123434365L950.1180348265916,77.97812648396939Z" fill="#7bb699" stroke="#7bb699"/><path d="M901.0552412476391,33.654918615706265L950.1180348265916,77.97812648396939L939.3948714956641,47.27710825018585Z" fill="#7cb699" stroke="#7cb699"/><path d="M939.3948714956641,47.27710825018585L950.1180348265916,77.97812648396939L1000.5151421967894,39.64669100288302Z" fill="#78b396" stroke="#78b396"/><path d="M1000.5151421967894,39.64669100288302L950.1180348265916,77.97812648396939L1002.2941781710833,136.1514327879995Z" fill="#71ae93" stroke="#71ae93"/><path d="M1000.5151421967894,39.64669100288302L1002.2941781710833,136.1514327879995L1093.0030984785408,86.84686260856688Z" fill="#6fa790" stroke="#6fa790"/><path d="M1000.5151421967894,39.64669100288302L1093.0030984785408,86.84686260856688L1054.2812243141234,5.967901605181396Z" fill="#76a991" stroke="#76a991"/><path d="M1188.551899655722,12.559141304343939L1093.0030984785408,86.84686260856688L1171.387408667244,136.99854395817965Z" fill="#719789" stroke="#719789"/><path d="M1188.551899655722,12.559141304343939L1171.387408667244,136.99854395817965L1225.3502894286066,137.7147326786071Z" fill="#6e8f85" stroke="#6e8f85"/><path d="M1188.551899655722,12.559141304343939L1225.3502894286066,137.7147326786071L1271.3775495514274,31.8207964906469Z" fill="#738d85" stroke="#738d85"/><path d="M1188.551899655722,12.559141304343939L1271.3775495514274,31.8207964906469L1195.4321307186037,5.5608243979513645Z" fill="#799388" stroke="#799388"/><path d="M1271.3775495514274,31.8207964906469L1225.3502894286066,137.7147326786071L1279.3794413888827,98.13443571515381Z" fill="#6f8682" stroke="#6f8682"/><path d="M1271.3775495514274,31.8207964906469L1279.3794413888827,98.13443571515381L1373.9768650066108,80.38454046007246Z" fill="#728180" stroke="#728180"/><path d="M1271.3775495514274,31.8207964906469L1373.9768650066108,80.38454046007246L1386.1850664876401,12.381767582148314Z" fill="#767f7f" stroke="#767f7f"/><path d="M1386.1850664876401,12.381767582148314L1373.9768650066108,80.38454046007246L1395.6660075690597,196.00251851975918Z" fill="#6e757b" stroke="#6e757b"/><path d="M-3.0188489593565464,116.58574372436851L-47.05729992501438,203.24173621367663L14.270177204161882,189.27522121556103Z" fill="#e1edf4" stroke="#e1edf4"/><path d="M-3.0188489593565464,116.58574372436851L14.270177204161882,189.27522121556103L64.6964112855494,71.23122801072896Z" fill="#e4f0f3" stroke="#e4f0f3"/><path d="M64.6964112855494,71.23122801072896L14.270177204161882,189.27522121556103L93.67515151109546,78.49098086357117Z" fill="#e4f0f1" stroke="#e4f0f1"/><path d="M93.67515151109546,78.49098086357117L14.270177204161882,189.27522121556103L127.0349631300196,178.94240487460047Z" fill="#deecee" stroke="#deecee"/><path d="M93.67515151109546,78.49098086357117L127.0349631300196,178.94240487460047L151.46552105341107,128.7966276872903Z" fill="#ddedeb" stroke="#ddedeb"/><path d="M151.46552105341107,128.7966276872903L127.0349631300196,178.94240487460047L167.67370609939098,179.05788316391408Z" fill="#d7e9e8" stroke="#d7e9e8"/><path d="M151.46552105341107,128.7966276872903L167.67370609939098,179.05788316391408L248.5299403797835,83.12788479495794Z" fill="#d7ebe4" stroke="#d7ebe4"/><path d="M248.5299403797835,83.12788479495794L167.67370609939098,179.05788316391408L266.1713032303378,183.17048095352948Z" fill="#d1e7e0" stroke="#d1e7e0"/><path d="M248.5299403797835,83.12788479495794L266.1713032303378,183.17048095352948L329.0944146309048,135.5482239117846Z" fill="#cde6da" stroke="#cde6da"/><path d="M329.0944146309048,135.5482239117846L266.1713032303378,183.17048095352948L314.0707643907517,186.3366278409958Z" fill="#c6e2d6" stroke="#c6e2d6"/><path d="M329.0944146309048,135.5482239117846L314.0707643907517,186.3366278409958L403.7500478364527,176.96762796118855Z" fill="#c0e0d0" stroke="#c0e0d0"/><path d="M329.0944146309048,135.5482239117846L403.7500478364527,176.96762796118855L411.0948916133493,81.3767817709595Z" fill="#c0e1cd" stroke="#c0e1cd"/><path d="M411.0948916133493,81.3767817709595L403.7500478364527,176.96762796118855L448.39081169478595,108.62283274438232Z" fill="#bce0c8" stroke="#bce0c8"/><path d="M448.39081169478595,108.62283274438232L403.7500478364527,176.96762796118855L477.6635172953829,156.53586910385638Z" fill="#b5dcc5" stroke="#b5dcc5"/><path d="M448.39081169478595,108.62283274438232L477.6635172953829,156.53586910385638L509.0545353740454,146.48633663449436Z" fill="#b1dac1" stroke="#b1dac1"/><path d="M448.39081169478595,108.62283274438232L509.0545353740454,146.48633663449436L527.7643992900848,75.1581873157993Z" fill="#b2dbbf" stroke="#b2dbbf"/><path d="M527.7643992900848,75.1581873157993L509.0545353740454,146.48633663449436L597.6133774230257,122.60009408835322Z" fill="#aad7b9" stroke="#aad7b9"/><path d="M597.6133774230257,122.60009408835322L509.0545353740454,146.48633663449436L602.5591008532792,157.45719363261014Z" fill="#a2d3b4" stroke="#a2d3b4"/><path d="M597.6133774230257,122.60009408835322L602.5591008532792,157.45719363261014L676.2300692405552,124.64352066721767Z" fill="#99cfb0" stroke="#99cfb0"/><path d="M676.2300692405552,124.64352066721767L602.5591008532792,157.45719363261014L665.5016496991739,205.43586535006762Z" fill="#91caac" stroke="#91caac"/><path d="M676.2300692405552,124.64352066721767L665.5016496991739,205.43586535006762L708.9034978114069,196.69361742399633Z" fill="#89c6a9" stroke="#89c6a9"/><path d="M676.2300692405552,124.64352066721767L708.9034978114069,196.69361742399633L728.4282407313585,114.00977257080376Z" fill="#89c7a8" stroke="#89c7a8"/><path d="M728.4282407313585,114.00977257080376L708.9034978114069,196.69361742399633L830.9414293272421,168.1726741399616Z" fill="#82c0a3" stroke="#82c0a3"/><path d="M728.4282407313585,114.00977257080376L830.9414293272421,168.1726741399616L835.1182632874697,117.92385609261692Z" fill="#81bda1" stroke="#81bda1"/><path d="M835.1182632874697,117.92385609261692L830.9414293272421,168.1726741399616L897.3569215480238,128.01515123434365Z" fill="#7ab79c" stroke="#7ab79c"/><path d="M897.3569215480238,128.01515123434365L830.9414293272421,168.1726741399616L907.6027413038537,176.9535048790276Z" fill="#74b399" stroke="#74b399"/><path d="M897.3569215480238,128.01515123434365L907.6027413038537,176.9535048790276L1002.2941781710833,136.1514327879995Z" fill="#6fae95" stroke="#6fae95"/><path d="M897.3569215480238,128.01515123434365L1002.2941781710833,136.1514327879995L950.1180348265916,77.97812648396939Z" fill="#71af95" stroke="#71af95"/><path d="M1002.2941781710833,136.1514327879995L907.6027413038537,176.9535048790276L981.5906346067786,195.6917409542948Z" fill="#68a891" stroke="#68a891"/><path d="M1002.2941781710833,136.1514327879995L981.5906346067786,195.6917409542948L1057.1120395278558,185.49335183668882Z" fill="#64a28d" stroke="#64a28d"/><path d="M1002.2941781710833,136.1514327879995L1057.1120395278558,185.49335183668882L1093.0030984785408,86.84686260856688Z" fill="#69a08c" stroke="#69a08c"/><path d="M1093.0030984785408,86.84686260856688L1057.1120395278558,185.49335183668882L1139.5304132727906,154.66451538912952Z" fill="#689989" stroke="#689989"/><path d="M1093.0030984785408,86.84686260856688L1139.5304132727906,154.66451538912952L1171.387408667244,136.99854395817965Z" fill="#6a9588" stroke="#6a9588"/><path d="M1171.387408667244,136.99854395817965L1139.5304132727906,154.66451538912952L1196.2451281109825,193.12170264404267Z" fill="#658d84" stroke="#658d84"/><path d="M1171.387408667244,136.99854395817965L1196.2451281109825,193.12170264404267L1225.3502894286066,137.7147326786071Z" fill="#668983" stroke="#668983"/><path d="M1225.3502894286066,137.7147326786071L1196.2451281109825,193.12170264404267L1312.798822965473,219.11427316628397Z" fill="#62807e" stroke="#62807e"/><path d="M1225.3502894286066,137.7147326786071L1312.798822965473,219.11427316628397L1323.6675320556387,148.80668541882187Z" fill="#647b7d" stroke="#647b7d"/><path d="M1225.3502894286066,137.7147326786071L1323.6675320556387,148.80668541882187L1279.3794413888827,98.13443571515381Z" fill="#6a807f" stroke="#6a807f"/><path d="M1279.3794413888827,98.13443571515381L1323.6675320556387,148.80668541882187L1373.9768650066108,80.38454046007246Z" fill="#6d7b7d" stroke="#6d7b7d"/><path d="M1373.9768650066108,80.38454046007246L1323.6675320556387,148.80668541882187L1395.6660075690597,196.00251851975918Z" fill="#687279" stroke="#687279"/><path d="M-47.05729992501438,203.24173621367663L-63.899524110369384,507.13721693493426L-48.736293078400195,475.72007174324244Z" fill="#acd0e6" stroke="#acd0e6"/><path d="M-47.05729992501438,203.24173621367663L-48.736293078400195,475.72007174324244L-19.097340773791075,391.351120387204Z" fill="#b3d6e9" stroke="#b3d6e9"/><path d="M-47.05729992501438,203.24173621367663L-19.097340773791075,391.351120387204L-9.927211376838386,345.4874615939334Z" fill="#bfdcea" stroke="#bfdcea"/><path d="M-47.05729992501438,203.24173621367663L-9.927211376838386,345.4874615939334L-8.894562812522054,269.82923820614815Z" fill="#cae3ec" stroke="#cae3ec"/><path d="M-47.05729992501438,203.24173621367663L-8.894562812522054,269.82923820614815L14.270177204161882,189.27522121556103Z" fill="#d6e8f0" stroke="#d6e8f0"/><path d="M14.270177204161882,189.27522121556103L-8.894562812522054,269.82923820614815L34.53343847300857,240.63681170530617Z" fill="#d1e6ed" stroke="#d1e6ed"/><path d="M14.270177204161882,189.27522121556103L34.53343847300857,240.63681170530617L127.0349631300196,178.94240487460047Z" fill="#d6e8ec" stroke="#d6e8ec"/><path d="M127.0349631300196,178.94240487460047L34.53343847300857,240.63681170530617L138.8580530434847,240.17221486289054Z" fill="#cfe5e7" stroke="#cfe5e7"/><path d="M127.0349631300196,178.94240487460047L138.8580530434847,240.17221486289054L167.67370609939098,179.05788316391408Z" fill="#d1e6e6" stroke="#d1e6e6"/><path d="M167.67370609939098,179.05788316391408L138.8580530434847,240.17221486289054L223.53109879698604,266.6668281648308Z" fill="#c7e2e0" stroke="#c7e2e0"/><path d="M167.67370609939098,179.05788316391408L223.53109879698604,266.6668281648308L266.1713032303378,183.17048095352948Z" fill="#c7e2dd" stroke="#c7e2dd"/><path d="M266.1713032303378,183.17048095352948L223.53109879698604,266.6668281648308L310.8556963475421,287.26547393295914Z" fill="#b9dcd4" stroke="#b9dcd4"/><path d="M266.1713032303378,183.17048095352948L310.8556963475421,287.26547393295914L331.8097990844399,218.0635456154123Z" fill="#b9dcd1" stroke="#b9dcd1"/><path d="M266.1713032303378,183.17048095352948L331.8097990844399,218.0635456154123L314.0707643907517,186.3366278409958Z" fill="#c0e0d4" stroke="#c0e0d4"/><path d="M314.0707643907517,186.3366278409958L331.8097990844399,218.0635456154123L403.7500478364527,176.96762796118855Z" fill="#bbddce" stroke="#bbddce"/><path d="M403.7500478364527,176.96762796118855L331.8097990844399,218.0635456154123L421.4511419860646,252.63203817699105Z" fill="#b1d9c8" stroke="#b1d9c8"/><path d="M403.7500478364527,176.96762796118855L421.4511419860646,252.63203817699105L477.6635172953829,156.53586910385638Z" fill="#afd8c3" stroke="#afd8c3"/><path d="M477.6635172953829,156.53586910385638L421.4511419860646,252.63203817699105L523.623480242677,217.08889973536134Z" fill="#a5d4bd" stroke="#a5d4bd"/><path d="M477.6635172953829,156.53586910385638L523.623480242677,217.08889973536134L509.0545353740454,146.48633663449436Z" fill="#a8d5bb" stroke="#a8d5bb"/><path d="M509.0545353740454,146.48633663449436L523.623480242677,217.08889973536134L602.5591008532792,157.45719363261014Z" fill="#a2d2b6" stroke="#a2d2b6"/><path d="M602.5591008532792,157.45719363261014L523.623480242677,217.08889973536134L595.8492238726467,215.72624174505472Z" fill="#98cdb1" stroke="#98cdb1"/><path d="M602.5591008532792,157.45719363261014L595.8492238726467,215.72624174505472L665.5016496991739,205.43586535006762Z" fill="#90caad" stroke="#90caad"/><path d="M665.5016496991739,205.43586535006762L595.8492238726467,215.72624174505472L632.2992573948577,242.573684069328Z" fill="#88c6aa" stroke="#88c6aa"/><path d="M665.5016496991739,205.43586535006762L632.2992573948577,242.573684069328L735.6122178127989,241.33866952639073Z" fill="#7ec1a5" stroke="#7ec1a5"/><path d="M665.5016496991739,205.43586535006762L735.6122178127989,241.33866952639073L708.9034978114069,196.69361742399633Z" fill="#7dc0a4" stroke="#7dc0a4"/><path d="M708.9034978114069,196.69361742399633L735.6122178127989,241.33866952639073L830.9414293272421,168.1726741399616Z" fill="#79bba0" stroke="#79bba0"/><path d="M830.9414293272421,168.1726741399616L735.6122178127989,241.33866952639073L788.3935530046001,271.6356150750071Z" fill="#71b69c" stroke="#71b69c"/><path d="M830.9414293272421,168.1726741399616L788.3935530046001,271.6356150750071L861.2120822584257,226.5886690914631Z" fill="#6eb299" stroke="#6eb299"/><path d="M830.9414293272421,168.1726741399616L861.2120822584257,226.5886690914631L907.6027413038537,176.9535048790276Z" fill="#70b198" stroke="#70b198"/><path d="M907.6027413038537,176.9535048790276L861.2120822584257,226.5886690914631L913.5649001942948,206.07713684719056Z" fill="#6aac95" stroke="#6aac95"/><path d="M907.6027413038537,176.9535048790276L913.5649001942948,206.07713684719056L981.5906346067786,195.6917409542948Z" fill="#67a992" stroke="#67a992"/><path d="M913.5649001942948,206.07713684719056L861.2120822584257,226.5886690914631L921.1283473335207,242.96142539661378Z" fill="#65aa93" stroke="#65aa93"/><path d="M913.5649001942948,206.07713684719056L921.1283473335207,242.96142539661378L981.5906346067786,195.6917409542948Z" fill="#62a790" stroke="#62a790"/><path d="M981.5906346067786,195.6917409542948L921.1283473335207,242.96142539661378L1010.7912183674052,277.9007514119148Z" fill="#59a18b" stroke="#59a18b"/><path d="M981.5906346067786,195.6917409542948L1010.7912183674052,277.9007514119148L1057.1120395278558,185.49335183668882Z" fill="#5a9d89" stroke="#5a9d89"/><path d="M1057.1120395278558,185.49335183668882L1010.7912183674052,277.9007514119148L1084.8367077363655,265.5590717382729Z" fill="#559685" stroke="#559685"/><path d="M1057.1120395278558,185.49335183668882L1084.8367077363655,265.5590717382729L1140.3573323581368,245.61905885487795Z" fill="#579183" stroke="#579183"/><path d="M1057.1120395278558,185.49335183668882L1140.3573323581368,245.61905885487795L1139.5304132727906,154.66451538912952Z" fill="#5f9285" stroke="#5f9285"/><path d="M1139.5304132727906,154.66451538912952L1140.3573323581368,245.61905885487795L1196.2451281109825,193.12170264404267Z" fill="#5f8b82" stroke="#5f8b82"/><path d="M1196.2451281109825,193.12170264404267L1140.3573323581368,245.61905885487795L1194.2257441086695,224.6336856642738Z" fill="#59867f" stroke="#59867f"/><path d="M1196.2451281109825,193.12170264404267L1194.2257441086695,224.6336856642738L1312.798822965473,219.11427316628397Z" fill="#5b7e7d" stroke="#5b7e7d"/><path d="M1323.6675320556387,148.80668541882187L1312.798822965473,219.11427316628397L1372.9170045349747,222.40046783536673Z" fill="#5f7178" stroke="#5f7178"/><path d="M1323.6675320556387,148.80668541882187L1372.9170045349747,222.40046783536673L1395.6660075690597,196.00251851975918Z" fill="#616e77" stroke="#616e77"/><path d="M1395.6660075690597,196.00251851975918L1372.9170045349747,222.40046783536673L1387.283422392793,367.0631495676935Z" fill="#506671" stroke="#506671"/><path d="M1395.6660075690597,196.00251851975918L1387.283422392793,367.0631495676935L1381.2596261315048,722.0398650690913Z" fill="#254c65" stroke="#254c65"/><path d="M1395.6660075690597,196.00251851975918L1381.2596261315048,722.0398650690913L1380.5484520653263,899.3604707708582Z" fill="#072c51" stroke="#072c51"/><path d="M-8.894562812522054,269.82923820614815L-9.927211376838386,345.4874615939334L48.349842462688684,342.39973917324096Z" fill="#bbdbe7" stroke="#bbdbe7"/><path d="M-8.894562812522054,269.82923820614815L48.349842462688684,342.39973917324096L34.53343847300857,240.63681170530617Z" fill="#c4e0e8" stroke="#c4e0e8"/><path d="M34.53343847300857,240.63681170530617L48.349842462688684,342.39973917324096L132.4569478109479,305.96451439894736Z" fill="#bedde4" stroke="#bedde4"/><path d="M34.53343847300857,240.63681170530617L132.4569478109479,305.96451439894736L138.8580530434847,240.17221486289054Z" fill="#c5e1e4" stroke="#c5e1e4"/><path d="M138.8580530434847,240.17221486289054L132.4569478109479,305.96451439894736L151.87639588769525,271.08427488803864Z" fill="#c0dfe0" stroke="#c0dfe0"/><path d="M138.8580530434847,240.17221486289054L151.87639588769525,271.08427488803864L223.53109879698604,266.6668281648308Z" fill="#c0dfde" stroke="#c0dfde"/><path d="M151.87639588769525,271.08427488803864L132.4569478109479,305.96451439894736L158.93074906803668,306.84195946808904Z" fill="#b9dbdf" stroke="#b9dbdf"/><path d="M151.87639588769525,271.08427488803864L158.93074906803668,306.84195946808904L223.53109879698604,266.6668281648308Z" fill="#b9dcdc" stroke="#b9dcdc"/><path d="M223.53109879698604,266.6668281648308L158.93074906803668,306.84195946808904L197.4301945520565,368.12415874935687Z" fill="#afd6d8" stroke="#afd6d8"/><path d="M223.53109879698604,266.6668281648308L197.4301945520565,368.12415874935687L267.82781196106225,325.59519876912236Z" fill="#a9d4d3" stroke="#a9d4d3"/><path d="M223.53109879698604,266.6668281648308L267.82781196106225,325.59519876912236L310.8556963475421,287.26547393295914Z" fill="#add6d1" stroke="#add6d1"/><path d="M331.8097990844399,218.0635456154123L310.8556963475421,287.26547393295914L369.4282829230651,286.7749548656866Z" fill="#acd7ca" stroke="#acd7ca"/><path d="M331.8097990844399,218.0635456154123L369.4282829230651,286.7749548656866L413.5573109583929,263.374433320947Z" fill="#aad6c6" stroke="#aad6c6"/><path d="M331.8097990844399,218.0635456154123L413.5573109583929,263.374433320947L421.4511419860646,252.63203817699105Z" fill="#aad6c5" stroke="#aad6c5"/><path d="M413.5573109583929,263.374433320947L369.4282829230651,286.7749548656866L427.45462718140334,297.63837345223874Z" fill="#9ed1c0" stroke="#9ed1c0"/><path d="M413.5573109583929,263.374433320947L427.45462718140334,297.63837345223874L421.4511419860646,252.63203817699105Z" fill="#9fd2bf" stroke="#9fd2bf"/><path d="M421.4511419860646,252.63203817699105L427.45462718140334,297.63837345223874L523.623480242677,217.08889973536134Z" fill="#9dd0bb" stroke="#9dd0bb"/><path d="M523.623480242677,217.08889973536134L427.45462718140334,297.63837345223874L525.7234142543748,336.97393175493926Z" fill="#90cab5" stroke="#90cab5"/><path d="M523.623480242677,217.08889973536134L525.7234142543748,336.97393175493926L579.449303759262,334.60851010587066Z" fill="#85c5ad" stroke="#85c5ad"/><path d="M523.623480242677,217.08889973536134L579.449303759262,334.60851010587066L595.8492238726467,215.72624174505472Z" fill="#8cc8ad" stroke="#8cc8ad"/><path d="M595.8492238726467,215.72624174505472L579.449303759262,334.60851010587066L632.2992573948577,242.573684069328Z" fill="#84c4a9" stroke="#84c4a9"/><path d="M632.2992573948577,242.573684069328L579.449303759262,334.60851010587066L694.9926207019016,311.1856034481898Z" fill="#75bda4" stroke="#75bda4"/><path d="M632.2992573948577,242.573684069328L694.9926207019016,311.1856034481898L735.6122178127989,241.33866952639073Z" fill="#74bda1" stroke="#74bda1"/><path d="M735.6122178127989,241.33866952639073L694.9926207019016,311.1856034481898L745.7096154112369,321.3929178118706Z" fill="#67b59d" stroke="#67b59d"/><path d="M735.6122178127989,241.33866952639073L745.7096154112369,321.3929178118706L788.3935530046001,271.6356150750071Z" fill="#67b49b" stroke="#67b49b"/><path d="M788.3935530046001,271.6356150750071L745.7096154112369,321.3929178118706L782.584267471917,318.9494265811518Z" fill="#5fae98" stroke="#5fae98"/><path d="M788.3935530046001,271.6356150750071L782.584267471917,318.9494265811518L850.4000989627093,310.17811105400324Z" fill="#5caa95" stroke="#5caa95"/><path d="M788.3935530046001,271.6356150750071L850.4000989627093,310.17811105400324L861.2120822584257,226.5886690914631Z" fill="#62ac95" stroke="#62ac95"/><path d="M861.2120822584257,226.5886690914631L850.4000989627093,310.17811105400324L921.1283473335207,242.96142539661378Z" fill="#5fa992" stroke="#5fa992"/><path d="M921.1283473335207,242.96142539661378L850.4000989627093,310.17811105400324L931.333077756688,300.7559933811426Z" fill="#56a38e" stroke="#56a38e"/><path d="M921.1283473335207,242.96142539661378L931.333077756688,300.7559933811426L1010.7912183674052,277.9007514119148Z" fill="#529f8a" stroke="#529f8a"/><path d="M1010.7912183674052,277.9007514119148L931.333077756688,300.7559933811426L1000.7389792716131,322.5462644295767Z" fill="#489886" stroke="#489886"/><path d="M1010.7912183674052,277.9007514119148L1000.7389792716131,322.5462644295767L1100.1755646476522,331.2589009087533Z" fill="#438f82" stroke="#438f82"/><path d="M1010.7912183674052,277.9007514119148L1100.1755646476522,331.2589009087533L1084.8367077363655,265.5590717382729Z" fill="#488e81" stroke="#488e81"/><path d="M1084.8367077363655,265.5590717382729L1100.1755646476522,331.2589009087533L1140.3573323581368,245.61905885487795Z" fill="#4b897f" stroke="#4b897f"/><path d="M1140.3573323581368,245.61905885487795L1100.1755646476522,331.2589009087533L1188.3904263861477,310.5898931529373Z" fill="#47827c" stroke="#47827c"/><path d="M1140.3573323581368,245.61905885487795L1188.3904263861477,310.5898931529373L1194.2257441086695,224.6336856642738Z" fill="#51827d" stroke="#51827d"/><path d="M1194.2257441086695,224.6336856642738L1188.3904263861477,310.5898931529373L1242.3181333849207,335.75356743671Z" fill="#487a79" stroke="#487a79"/><path d="M1194.2257441086695,224.6336856642738L1242.3181333849207,335.75356743671L1312.798822965473,219.11427316628397Z" fill="#517878" stroke="#517878"/><path d="M1312.798822965473,219.11427316628397L1242.3181333849207,335.75356743671L1315.5406229523942,309.36935394909233Z" fill="#496e74" stroke="#496e74"/><path d="M1312.798822965473,219.11427316628397L1315.5406229523942,309.36935394909233L1372.9170045349747,222.40046783536673Z" fill="#536d74" stroke="#536d74"/><path d="M1372.9170045349747,222.40046783536673L1315.5406229523942,309.36935394909233L1342.3095436543226,322.0523561500013Z" fill="#4a6771" stroke="#4a6771"/><path d="M1372.9170045349747,222.40046783536673L1342.3095436543226,322.0523561500013L1387.283422392793,367.0631495676935Z" fill="#45606e" stroke="#45606e"/><path d="M-9.927211376838386,345.4874615939334L-19.097340773791075,391.351120387204L62.98976323194802,379.3181189233437Z" fill="#add2e3" stroke="#add2e3"/><path d="M-9.927211376838386,345.4874615939334L62.98976323194802,379.3181189233437L48.349842462688684,342.39973917324096Z" fill="#afd4e3" stroke="#afd4e3"/><path d="M48.349842462688684,342.39973917324096L62.98976323194802,379.3181189233437L119.67240259796381,368.29529854189605Z" fill="#aad2e0" stroke="#aad2e0"/><path d="M48.349842462688684,342.39973917324096L119.67240259796381,368.29529854189605L132.4569478109479,305.96451439894736Z" fill="#b0d5df" stroke="#b0d5df"/><path d="M132.4569478109479,305.96451439894736L119.67240259796381,368.29529854189605L158.93074906803668,306.84195946808904Z" fill="#b1d6de" stroke="#b1d6de"/><path d="M158.93074906803668,306.84195946808904L119.67240259796381,368.29529854189605L197.4301945520565,368.12415874935687Z" fill="#a9d2da" stroke="#a9d2da"/><path d="M267.82781196106225,325.59519876912236L197.4301945520565,368.12415874935687L242.7630936773494,413.50933563522995Z" fill="#9bccd0" stroke="#9bccd0"/><path d="M267.82781196106225,325.59519876912236L242.7630936773494,413.50933563522995L295.60684694815427,355.1048919297755Z" fill="#99cbcc" stroke="#99cbcc"/><path d="M267.82781196106225,325.59519876912236L295.60684694815427,355.1048919297755L310.8556963475421,287.26547393295914Z" fill="#a2d0cc" stroke="#a2d0cc"/><path d="M310.8556963475421,287.26547393295914L295.60684694815427,355.1048919297755L379.4149376805872,355.5804079454392Z" fill="#9acdc7" stroke="#9acdc7"/><path d="M310.8556963475421,287.26547393295914L379.4149376805872,355.5804079454392L369.4282829230651,286.7749548656866Z" fill="#9dcfc5" stroke="#9dcfc5"/><path d="M369.4282829230651,286.7749548656866L379.4149376805872,355.5804079454392L427.45462718140334,297.63837345223874Z" fill="#97ccc0" stroke="#97ccc0"/><path d="M427.45462718140334,297.63837345223874L379.4149376805872,355.5804079454392L453.4257375076413,377.6899063400924Z" fill="#8bc6ba" stroke="#8bc6ba"/><path d="M427.45462718140334,297.63837345223874L453.4257375076413,377.6899063400924L525.7234142543748,336.97393175493926Z" fill="#85c4b4" stroke="#85c4b4"/><path d="M525.7234142543748,336.97393175493926L453.4257375076413,377.6899063400924L536.1574046630412,380.23785939626396Z" fill="#78bcae" stroke="#78bcae"/><path d="M525.7234142543748,336.97393175493926L536.1574046630412,380.23785939626396L579.449303759262,334.60851010587066Z" fill="#75bcaa" stroke="#75bcaa"/><path d="M579.449303759262,334.60851010587066L536.1574046630412,380.23785939626396L588.2283467734233,380.67410779651254Z" fill="#6eb8a5" stroke="#6eb8a5"/><path d="M579.449303759262,334.60851010587066L588.2283467734233,380.67410779651254L694.9926207019016,311.1856034481898Z" fill="#6ab7a3" stroke="#6ab7a3"/><path d="M694.9926207019016,311.1856034481898L588.2283467734233,380.67410779651254L690.6072975341231,399.07513090316206Z" fill="#5eb09e" stroke="#5eb09e"/><path d="M694.9926207019016,311.1856034481898L690.6072975341231,399.07513090316206L713.8686026399955,363.4252641685307Z" fill="#58ad9b" stroke="#58ad9b"/><path d="M694.9926207019016,311.1856034481898L713.8686026399955,363.4252641685307L745.7096154112369,321.3929178118706Z" fill="#5daf9b" stroke="#5daf9b"/><path d="M745.7096154112369,321.3929178118706L713.8686026399955,363.4252641685307L782.584267471917,318.9494265811518Z" fill="#58ac98" stroke="#58ac98"/><path d="M782.584267471917,318.9494265811518L713.8686026399955,363.4252641685307L809.4727557161823,405.4058211641386Z" fill="#4fa594" stroke="#4fa594"/><path d="M782.584267471917,318.9494265811518L809.4727557161823,405.4058211641386L850.4000989627093,310.17811105400324Z" fill="#4ea392" stroke="#4ea392"/><path d="M850.4000989627093,310.17811105400324L809.4727557161823,405.4058211641386L880.8647850221023,362.9384058089927Z" fill="#479d8e" stroke="#479d8e"/><path d="M850.4000989627093,310.17811105400324L880.8647850221023,362.9384058089927L931.333077756688,300.7559933811426Z" fill="#4c9e8d" stroke="#4c9e8d"/><path d="M931.333077756688,300.7559933811426L880.8647850221023,362.9384058089927L936.1938604656607,409.7500286065042Z" fill="#3f9688" stroke="#3f9688"/><path d="M931.333077756688,300.7559933811426L936.1938604656607,409.7500286065042L1000.7389792716131,322.5462644295767Z" fill="#3e9485" stroke="#3e9485"/><path d="M1000.7389792716131,322.5462644295767L936.1938604656607,409.7500286065042L1011.1294620623812,404.04129451327026Z" fill="#328c80" stroke="#328c80"/><path d="M1000.7389792716131,322.5462644295767L1011.1294620623812,404.04129451327026L1103.7002857225016,375.1095268689096Z" fill="#33867e" stroke="#33867e"/><path d="M1000.7389792716131,322.5462644295767L1103.7002857225016,375.1095268689096L1100.1755646476522,331.2589009087533Z" fill="#39857e" stroke="#39857e"/><path d="M1100.1755646476522,331.2589009087533L1103.7002857225016,375.1095268689096L1157.2243951139972,396.6320084743202Z" fill="#337a79" stroke="#337a79"/><path d="M1100.1755646476522,331.2589009087533L1157.2243951139972,396.6320084743202L1188.3904263861477,310.5898931529373Z" fill="#387979" stroke="#387979"/><path d="M1188.3904263861477,310.5898931529373L1157.2243951139972,396.6320084743202L1204.3650011001155,397.12245844863355Z" fill="#337175" stroke="#337175"/><path d="M1188.3904263861477,310.5898931529373L1204.3650011001155,397.12245844863355L1242.3181333849207,335.75356743671Z" fill="#387075" stroke="#387075"/><path d="M1242.3181333849207,335.75356743671L1204.3650011001155,397.12245844863355L1276.905881532468,380.8698776457459Z" fill="#326871" stroke="#326871"/><path d="M1242.3181333849207,335.75356743671L1276.905881532468,380.8698776457459L1315.5406229523942,309.36935394909233Z" fill="#3a6771" stroke="#3a6771"/><path d="M1315.5406229523942,309.36935394909233L1276.905881532468,380.8698776457459L1342.3095436543226,322.0523561500013Z" fill="#3b636f" stroke="#3b636f"/><path d="M1342.3095436543226,322.0523561500013L1276.905881532468,380.8698776457459L1387.283422392793,367.0631495676935Z" fill="#355d6d" stroke="#355d6d"/><path d="M-19.097340773791075,391.351120387204L-48.736293078400195,475.72007174324244L60.34456063248217,434.87065420113504Z" fill="#9fc9df" stroke="#9fc9df"/><path d="M-19.097340773791075,391.351120387204L60.34456063248217,434.87065420113504L62.98976323194802,379.3181189233437Z" fill="#a5cddf" stroke="#a5cddf"/><path d="M62.98976323194802,379.3181189233437L60.34456063248217,434.87065420113504L119.67240259796381,368.29529854189605Z" fill="#a3cddc" stroke="#a3cddc"/><path d="M119.67240259796381,368.29529854189605L60.34456063248217,434.87065420113504L147.52625306881964,451.8755161194131Z" fill="#9cc9d8" stroke="#9cc9d8"/><path d="M119.67240259796381,368.29529854189605L147.52625306881964,451.8755161194131L197.4301945520565,368.12415874935687Z" fill="#9dcbd6" stroke="#9dcbd6"/><path d="M197.4301945520565,368.12415874935687L147.52625306881964,451.8755161194131L236.64324857667089,444.1827800311148Z" fill="#94c5cf" stroke="#94c5cf"/><path d="M197.4301945520565,368.12415874935687L236.64324857667089,444.1827800311148L242.7630936773494,413.50933563522995Z" fill="#93c6cd" stroke="#93c6cd"/><path d="M242.7630936773494,413.50933563522995L236.64324857667089,444.1827800311148L331.6384245911613,460.32521369028836Z" fill="#87bfc5" stroke="#87bfc5"/><path d="M242.7630936773494,413.50933563522995L331.6384245911613,460.32521369028836L295.60684694815427,355.1048919297755Z" fill="#8cc3c6" stroke="#8cc3c6"/><path d="M295.60684694815427,355.1048919297755L331.6384245911613,460.32521369028836L357.8011154839769,439.3027940709144Z" fill="#85bfc0" stroke="#85bfc0"/><path d="M295.60684694815427,355.1048919297755L357.8011154839769,439.3027940709144L379.4149376805872,355.5804079454392Z" fill="#8bc4c1" stroke="#8bc4c1"/><path d="M379.4149376805872,355.5804079454392L357.8011154839769,439.3027940709144L453.4257375076413,377.6899063400924Z" fill="#82c0ba" stroke="#82c0ba"/><path d="M453.4257375076413,377.6899063400924L357.8011154839769,439.3027940709144L450.3427236042917,494.75883617065847Z" fill="#74b7b2" stroke="#74b7b2"/><path d="M453.4257375076413,377.6899063400924L450.3427236042917,494.75883617065847L475.26753507368267,483.1670191446319Z" fill="#6bb2ac" stroke="#6bb2ac"/><path d="M453.4257375076413,377.6899063400924L475.26753507368267,483.1670191446319L526.195753893815,433.58794615324587Z" fill="#6cb3aa" stroke="#6cb3aa"/><path d="M453.4257375076413,377.6899063400924L526.195753893815,433.58794615324587L536.1574046630412,380.23785939626396Z" fill="#70b7ab" stroke="#70b7ab"/><path d="M536.1574046630412,380.23785939626396L526.195753893815,433.58794615324587L588.2283467734233,380.67410779651254Z" fill="#69b4a5" stroke="#69b4a5"/><path d="M588.2283467734233,380.67410779651254L526.195753893815,433.58794615324587L600.0448939921334,466.2032587658614Z" fill="#5faea0" stroke="#5faea0"/><path d="M588.2283467734233,380.67410779651254L600.0448939921334,466.2032587658614L690.6072975341231,399.07513090316206Z" fill="#57ab9c" stroke="#57ab9c"/><path d="M690.6072975341231,399.07513090316206L600.0448939921334,466.2032587658614L670.7845987323672,467.19173856358975Z" fill="#4ca497" stroke="#4ca497"/><path d="M690.6072975341231,399.07513090316206L670.7845987323672,467.19173856358975L734.895012631081,429.5038966909051Z" fill="#47a294" stroke="#47a294"/><path d="M690.6072975341231,399.07513090316206L734.895012631081,429.5038966909051L713.8686026399955,363.4252641685307Z" fill="#4da696" stroke="#4da696"/><path d="M713.8686026399955,363.4252641685307L734.895012631081,429.5038966909051L809.4727557161823,405.4058211641386Z" fill="#48a192" stroke="#48a192"/><path d="M809.4727557161823,405.4058211641386L734.895012631081,429.5038966909051L819.4488457581028,422.64776715729386Z" fill="#409a8e" stroke="#409a8e"/><path d="M809.4727557161823,405.4058211641386L819.4488457581028,422.64776715729386L880.8647850221023,362.9384058089927Z" fill="#40988c" stroke="#40988c"/><path d="M880.8647850221023,362.9384058089927L819.4488457581028,422.64776715729386L846.4515451947227,452.685447123833Z" fill="#3b9489" stroke="#3b9489"/><path d="M880.8647850221023,362.9384058089927L846.4515451947227,452.685447123833L927.2067122925073,432.1845973338932Z" fill="#359085" stroke="#359085"/><path d="M880.8647850221023,362.9384058089927L927.2067122925073,432.1845973338932L936.1938604656607,409.7500286065042Z" fill="#358f84" stroke="#358f84"/><path d="M936.1938604656607,409.7500286065042L927.2067122925073,432.1845973338932L1017.7592313140631,460.34508572146297Z" fill="#28857d" stroke="#28857d"/><path d="M936.1938604656607,409.7500286065042L1017.7592313140631,460.34508572146297L1011.1294620623812,404.04129451327026Z" fill="#27847c" stroke="#27847c"/><path d="M1011.1294620623812,404.04129451327026L1017.7592313140631,460.34508572146297L1069.4323128284886,442.70743414759636Z" fill="#237c78" stroke="#237c78"/><path d="M1011.1294620623812,404.04129451327026L1069.4323128284886,442.70743414759636L1103.7002857225016,375.1095268689096Z" fill="#2a7c79" stroke="#2a7c79"/><path d="M1103.7002857225016,375.1095268689096L1069.4323128284886,442.70743414759636L1157.2243951139972,396.6320084743202Z" fill="#2a7576" stroke="#2a7576"/><path d="M1157.2243951139972,396.6320084743202L1069.4323128284886,442.70743414759636L1155.040897759609,476.57978257816285Z" fill="#236e72" stroke="#236e72"/><path d="M1157.2243951139972,396.6320084743202L1155.040897759609,476.57978257816285L1204.3650011001155,397.12245844863355Z" fill="#266a71" stroke="#266a71"/><path d="M1204.3650011001155,397.12245844863355L1155.040897759609,476.57978257816285L1240.2644799714908,451.99817556422204Z" fill="#22636d" stroke="#22636d"/><path d="M1204.3650011001155,397.12245844863355L1240.2644799714908,451.99817556422204L1261.93216515705,433.20942381210625Z" fill="#25606c" stroke="#25606c"/><path d="M1204.3650011001155,397.12245844863355L1261.93216515705,433.20942381210625L1276.905881532468,380.8698776457459Z" fill="#2b626e" stroke="#2b626e"/><path d="M1276.905881532468,380.8698776457459L1261.93216515705,433.20942381210625L1350.948414137587,431.4621152803302Z" fill="#28596a" stroke="#28596a"/><path d="M1276.905881532468,380.8698776457459L1350.948414137587,431.4621152803302L1387.283422392793,367.0631495676935Z" fill="#2d5669" stroke="#2d5669"/><path d="M1387.283422392793,367.0631495676935L1350.948414137587,431.4621152803302L1331.1073089810088,525.1842892244458Z" fill="#224c64" stroke="#224c64"/><path d="M1387.283422392793,367.0631495676935L1331.1073089810088,525.1842892244458L1338.7273129820824,621.1869825692847Z" fill="#16415e" stroke="#16415e"/><path d="M1387.283422392793,367.0631495676935L1338.7273129820824,621.1869825692847L1381.2596261315048,722.0398650690913Z" fill="#0c3356" stroke="#0c3356"/><path d="M-48.736293078400195,475.72007174324244L-63.899524110369384,507.13721693493426L43.44232047256082,518.7975645260885Z" fill="#94bdda" stroke="#94bdda"/><path d="M-48.736293078400195,475.72007174324244L43.44232047256082,518.7975645260885L60.34456063248217,434.87065420113504Z" fill="#96c1d9" stroke="#96c1d9"/><path d="M60.34456063248217,434.87065420113504L43.44232047256082,518.7975645260885L106.93591031897813,504.85400637611747Z" fill="#91bed5" stroke="#91bed5"/><path d="M60.34456063248217,434.87065420113504L106.93591031897813,504.85400637611747L138.3436316754669,482.7235882114619Z" fill="#91bfd3" stroke="#91bfd3"/><path d="M60.34456063248217,434.87065420113504L138.3436316754669,482.7235882114619L147.52625306881964,451.8755161194131Z" fill="#93c2d4" stroke="#93c2d4"/><path d="M138.3436316754669,482.7235882114619L106.93591031897813,504.85400637611747L174.5771061256528,545.9943684637547Z" fill="#87b7cd" stroke="#87b7cd"/><path d="M138.3436316754669,482.7235882114619L174.5771061256528,545.9943684637547L248.8894700417295,515.2859935956076Z" fill="#82b5c8" stroke="#82b5c8"/><path d="M138.3436316754669,482.7235882114619L248.8894700417295,515.2859935956076L236.64324857667089,444.1827800311148Z" fill="#86bac8" stroke="#86bac8"/><path d="M138.3436316754669,482.7235882114619L236.64324857667089,444.1827800311148L147.52625306881964,451.8755161194131Z" fill="#8dbfce" stroke="#8dbfce"/><path d="M236.64324857667089,444.1827800311148L248.8894700417295,515.2859935956076L297.4898947253823,507.4021377693862Z" fill="#7fb6c1" stroke="#7fb6c1"/><path d="M236.64324857667089,444.1827800311148L297.4898947253823,507.4021377693862L331.6384245911613,460.32521369028836Z" fill="#7fb9c0" stroke="#7fb9c0"/><path d="M331.6384245911613,460.32521369028836L297.4898947253823,507.4021377693862L407.08655715733767,503.56800506077707Z" fill="#74b2b7" stroke="#74b2b7"/><path d="M331.6384245911613,460.32521369028836L407.08655715733767,503.56800506077707L357.8011154839769,439.3027940709144Z" fill="#75b5b7" stroke="#75b5b7"/><path d="M357.8011154839769,439.3027940709144L407.08655715733767,503.56800506077707L450.3427236042917,494.75883617065847Z" fill="#6eb0b0" stroke="#6eb0b0"/><path d="M475.26753507368267,483.1670191446319L450.3427236042917,494.75883617065847L478.9573840778321,583.9169058436528Z" fill="#5da5a4" stroke="#5da5a4"/><path d="M475.26753507368267,483.1670191446319L478.9573840778321,583.9169058436528L531.0348530504853,497.0976624293253Z" fill="#58a2a0" stroke="#58a2a0"/><path d="M475.26753507368267,483.1670191446319L531.0348530504853,497.0976624293253L526.195753893815,433.58794615324587Z" fill="#5faba3" stroke="#5faba3"/><path d="M526.195753893815,433.58794615324587L531.0348530504853,497.0976624293253L600.0448939921334,466.2032587658614Z" fill="#5aa89e" stroke="#5aa89e"/><path d="M600.0448939921334,466.2032587658614L531.0348530504853,497.0976624293253L611.5507524656132,518.1627270812169Z" fill="#50a199" stroke="#50a199"/><path d="M600.0448939921334,466.2032587658614L611.5507524656132,518.1627270812169L643.9401252996176,496.51683417800814Z" fill="#499e95" stroke="#499e95"/><path d="M600.0448939921334,466.2032587658614L643.9401252996176,496.51683417800814L670.7845987323672,467.19173856358975Z" fill="#499f95" stroke="#499f95"/><path d="M670.7845987323672,467.19173856358975L643.9401252996176,496.51683417800814L739.681487984024,495.7895669620484Z" fill="#3e9990" stroke="#3e9990"/><path d="M670.7845987323672,467.19173856358975L739.681487984024,495.7895669620484L734.895012631081,429.5038966909051Z" fill="#3e9b8f" stroke="#3e9b8f"/><path d="M734.895012631081,429.5038966909051L739.681487984024,495.7895669620484L777.2432184005156,498.95878239069134Z" fill="#38958b" stroke="#38958b"/><path d="M734.895012631081,429.5038966909051L777.2432184005156,498.95878239069134L819.4488457581028,422.64776715729386Z" fill="#3a968c" stroke="#3a968c"/><path d="M819.4488457581028,422.64776715729386L777.2432184005156,498.95878239069134L846.4515451947227,452.685447123833Z" fill="#349188" stroke="#349188"/><path d="M846.4515451947227,452.685447123833L777.2432184005156,498.95878239069134L852.2013313351199,552.8168813595548Z" fill="#2b8783" stroke="#2b8783"/><path d="M846.4515451947227,452.685447123833L852.2013313351199,552.8168813595548L935.0819212077186,519.3267384916544Z" fill="#24807e" stroke="#24807e"/><path d="M846.4515451947227,452.685447123833L935.0819212077186,519.3267384916544L927.2067122925073,432.1845973338932Z" fill="#28857f" stroke="#28857f"/><path d="M927.2067122925073,432.1845973338932L935.0819212077186,519.3267384916544L1017.7592313140631,460.34508572146297Z" fill="#217e7a" stroke="#217e7a"/><path d="M1017.7592313140631,460.34508572146297L935.0819212077186,519.3267384916544L1032.9066585507244,544.7767451917753Z" fill="#157473" stroke="#157473"/><path d="M1017.7592313140631,460.34508572146297L1032.9066585507244,544.7767451917753L1069.4323128284886,442.70743414759636Z" fill="#1a7273" stroke="#1a7273"/><path d="M1069.4323128284886,442.70743414759636L1032.9066585507244,544.7767451917753L1113.5826385784894,529.215463954024Z" fill="#16696f" stroke="#16696f"/><path d="M1069.4323128284886,442.70743414759636L1113.5826385784894,529.215463954024L1155.040897759609,476.57978257816285Z" fill="#1a686f" stroke="#1a686f"/><path d="M1155.040897759609,476.57978257816285L1113.5826385784894,529.215463954024L1173.6490865731612,546.3436606675386Z" fill="#145c69" stroke="#145c69"/><path d="M1155.040897759609,476.57978257816285L1173.6490865731612,546.3436606675386L1214.6937559815124,524.7967017572373Z" fill="#145867" stroke="#145867"/><path d="M1155.040897759609,476.57978257816285L1214.6937559815124,524.7967017572373L1240.2644799714908,451.99817556422204Z" fill="#1a5a69" stroke="#1a5a69"/><path d="M1240.2644799714908,451.99817556422204L1214.6937559815124,524.7967017572373L1272.7727548377588,531.9697918845341Z" fill="#165165" stroke="#165165"/><path d="M1240.2644799714908,451.99817556422204L1272.7727548377588,531.9697918845341L1261.93216515705,433.20942381210625Z" fill="#1c5567" stroke="#1c5567"/><path d="M1261.93216515705,433.20942381210625L1272.7727548377588,531.9697918845341L1331.1073089810088,525.1842892244458Z" fill="#184c63" stroke="#184c63"/><path d="M1261.93216515705,433.20942381210625L1331.1073089810088,525.1842892244458L1350.948414137587,431.4621152803302Z" fill="#1e4e64" stroke="#1e4e64"/><path d="M-63.899524110369384,507.13721693493426L-58.964349816553295,905.2841221867129L-41.253713769838214,688.4235297292471Z" fill="#839ab7" stroke="#839ab7"/><path d="M-63.899524110369384,507.13721693493426L-41.253713769838214,688.4235297292471L-21.674196044914424,573.0732871079817Z" fill="#87aed0" stroke="#87aed0"/><path d="M-63.899524110369384,507.13721693493426L-21.674196044914424,573.0732871079817L43.44232047256082,518.7975645260885Z" fill="#8db7d6" stroke="#8db7d6"/><path d="M43.44232047256082,518.7975645260885L-21.674196044914424,573.0732871079817L12.270834339782596,585.3770358236507Z" fill="#88b2d1" stroke="#88b2d1"/><path d="M43.44232047256082,518.7975645260885L12.270834339782596,585.3770358236507L94.460981849581,593.0032662814483Z" fill="#85b0cd" stroke="#85b0cd"/><path d="M43.44232047256082,518.7975645260885L94.460981849581,593.0032662814483L106.93591031897813,504.85400637611747Z" fill="#86b4ce" stroke="#86b4ce"/><path d="M106.93591031897813,504.85400637611747L94.460981849581,593.0032662814483L174.5771061256528,545.9943684637547Z" fill="#82b1ca" stroke="#82b1ca"/><path d="M174.5771061256528,545.9943684637547L94.460981849581,593.0032662814483L174.77418787032366,571.4856755677611Z" fill="#7eadc5" stroke="#7eadc5"/><path d="M174.5771061256528,545.9943684637547L174.77418787032366,571.4856755677611L223.47800098452717,582.2115575736389Z" fill="#7aabc1" stroke="#7aabc1"/><path d="M174.5771061256528,545.9943684637547L223.47800098452717,582.2115575736389L248.8894700417295,515.2859935956076Z" fill="#7aaec0" stroke="#7aaec0"/><path d="M248.8894700417295,515.2859935956076L223.47800098452717,582.2115575736389L297.4898947253823,507.4021377693862Z" fill="#77aebe" stroke="#77aebe"/><path d="M297.4898947253823,507.4021377693862L223.47800098452717,582.2115575736389L347.0329516818747,592.6840204112232Z" fill="#70a8b6" stroke="#70a8b6"/><path d="M297.4898947253823,507.4021377693862L347.0329516818747,592.6840204112232L407.08655715733767,503.56800506077707Z" fill="#6baab2" stroke="#6baab2"/><path d="M407.08655715733767,503.56800506077707L347.0329516818747,592.6840204112232L414.4580647367984,606.5922285830602Z" fill="#61a1a8" stroke="#61a1a8"/><path d="M407.08655715733767,503.56800506077707L414.4580647367984,606.5922285830602L478.9573840778321,583.9169058436528Z" fill="#5c9fa3" stroke="#5c9fa3"/><path d="M407.08655715733767,503.56800506077707L478.9573840778321,583.9169058436528L450.3427236042917,494.75883617065847Z" fill="#5fa5a6" stroke="#5fa5a6"/><path d="M531.0348530504853,497.0976624293253L478.9573840778321,583.9169058436528L521.3095227153972,595.3555464623496Z" fill="#509b9a" stroke="#509b9a"/><path d="M531.0348530504853,497.0976624293253L521.3095227153972,595.3555464623496L575.4355321116745,598.5584845906124Z" fill="#4a9795" stroke="#4a9795"/><path d="M531.0348530504853,497.0976624293253L575.4355321116745,598.5584845906124L611.5507524656132,518.1627270812169Z" fill="#4a9995" stroke="#4a9995"/><path d="M611.5507524656132,518.1627270812169L575.4355321116745,598.5584845906124L660.3111892547458,622.3968304451555Z" fill="#3c8e8b" stroke="#3c8e8b"/><path d="M611.5507524656132,518.1627270812169L660.3111892547458,622.3968304451555L643.9401252996176,496.51683417800814Z" fill="#3d938e" stroke="#3d938e"/><path d="M643.9401252996176,496.51683417800814L660.3111892547458,622.3968304451555L720.0790763292462,615.7866307133809Z" fill="#318986" stroke="#318986"/><path d="M643.9401252996176,496.51683417800814L720.0790763292462,615.7866307133809L739.681487984024,495.7895669620484Z" fill="#338f8a" stroke="#338f8a"/><path d="M739.681487984024,495.7895669620484L720.0790763292462,615.7866307133809L777.2432184005156,498.95878239069134Z" fill="#2d8a86" stroke="#2d8a86"/><path d="M777.2432184005156,498.95878239069134L720.0790763292462,615.7866307133809L803.3239569924772,604.129118704237Z" fill="#26817f" stroke="#26817f"/><path d="M777.2432184005156,498.95878239069134L803.3239569924772,604.129118704237L852.2013313351199,552.8168813595548Z" fill="#24807e" stroke="#24807e"/><path d="M852.2013313351199,552.8168813595548L803.3239569924772,604.129118704237L881.8712865086272,628.4846808351576Z" fill="#1b7475" stroke="#1b7475"/><path d="M852.2013313351199,552.8168813595548L881.8712865086272,628.4846808351576L940.4247615979984,561.7900436632335Z" fill="#177273" stroke="#177273"/><path d="M852.2013313351199,552.8168813595548L940.4247615979984,561.7900436632335L935.0819212077186,519.3267384916544Z" fill="#1a7677" stroke="#1a7677"/><path d="M935.0819212077186,519.3267384916544L940.4247615979984,561.7900436632335L1032.9066585507244,544.7767451917753Z" fill="#137172" stroke="#137172"/><path d="M1032.9066585507244,544.7767451917753L940.4247615979984,561.7900436632335L1013.7971745273098,620.0698066065088Z" fill="#0b686b" stroke="#0b686b"/><path d="M1032.9066585507244,544.7767451917753L1013.7971745273098,620.0698066065088L1065.2497891169041,588.6464767167345Z" fill="#0a6067" stroke="#0a6067"/><path d="M1032.9066585507244,544.7767451917753L1065.2497891169041,588.6464767167345L1113.5826385784894,529.215463954024Z" fill="#0e6069" stroke="#0e6069"/><path d="M1113.5826385784894,529.215463954024L1065.2497891169041,588.6464767167345L1137.827920153737,625.0973081877455Z" fill="#0a5764" stroke="#0a5764"/><path d="M1113.5826385784894,529.215463954024L1137.827920153737,625.0973081877455L1173.6490865731612,546.3436606675386Z" fill="#0c5464" stroke="#0c5464"/><path d="M1173.6490865731612,546.3436606675386L1137.827920153737,625.0973081877455L1196.5630584917963,571.6099530924112Z" fill="#0a4e60" stroke="#0a4e60"/><path d="M1173.6490865731612,546.3436606675386L1196.5630584917963,571.6099530924112L1214.6937559815124,524.7967017572373Z" fill="#0f5063" stroke="#0f5063"/><path d="M1214.6937559815124,524.7967017572373L1196.5630584917963,571.6099530924112L1266.6629166584462,584.8519555367529Z" fill="#0d495f" stroke="#0d495f"/><path d="M1214.6937559815124,524.7967017572373L1266.6629166584462,584.8519555367529L1272.7727548377588,531.9697918845341Z" fill="#0f485f" stroke="#0f485f"/><path d="M1272.7727548377588,531.9697918845341L1266.6629166584462,584.8519555367529L1331.1073089810088,525.1842892244458Z" fill="#0f425d" stroke="#0f425d"/><path d="M1331.1073089810088,525.1842892244458L1266.6629166584462,584.8519555367529L1338.7273129820824,621.1869825692847Z" fill="#0b3a58" stroke="#0b3a58"/><path d="M-21.674196044914424,573.0732871079817L-41.253713769838214,688.4235297292471L12.270834339782596,585.3770358236507Z" fill="#82a8cb" stroke="#82a8cb"/><path d="M12.270834339782596,585.3770358236507L-41.253713769838214,688.4235297292471L40.44581370893866,633.7820250401273Z" fill="#80a4c4" stroke="#80a4c4"/><path d="M12.270834339782596,585.3770358236507L40.44581370893866,633.7820250401273L94.460981849581,593.0032662814483Z" fill="#7fa9c8" stroke="#7fa9c8"/><path d="M94.460981849581,593.0032662814483L40.44581370893866,633.7820250401273L121.69461132120341,654.9388440968469Z" fill="#7aa4c1" stroke="#7aa4c1"/><path d="M94.460981849581,593.0032662814483L121.69461132120341,654.9388440968469L174.77418787032366,571.4856755677611Z" fill="#7aa7c1" stroke="#7aa7c1"/><path d="M174.77418787032366,571.4856755677611L121.69461132120341,654.9388440968469L168.57837420608848,658.4811470182613Z" fill="#75a2bb" stroke="#75a2bb"/><path d="M174.77418787032366,571.4856755677611L168.57837420608848,658.4811470182613L223.47800098452717,582.2115575736389Z" fill="#74a5bb" stroke="#74a5bb"/><path d="M223.47800098452717,582.2115575736389L168.57837420608848,658.4811470182613L248.94090343266726,631.1105921315029Z" fill="#6fa0b6" stroke="#6fa0b6"/><path d="M223.47800098452717,582.2115575736389L248.94090343266726,631.1105921315029L347.0329516818747,592.6840204112232Z" fill="#6ca1b3" stroke="#6ca1b3"/><path d="M347.0329516818747,592.6840204112232L248.94090343266726,631.1105921315029L302.4744056351483,685.4337988412008Z" fill="#669aa8" stroke="#669aa8"/><path d="M347.0329516818747,592.6840204112232L302.4744056351483,685.4337988412008L380.81355877779424,704.287517093122Z" fill="#60939c" stroke="#60939c"/><path d="M347.0329516818747,592.6840204112232L380.81355877779424,704.287517093122L415.3013543570414,660.3627061620355Z" fill="#5b9299" stroke="#5b9299"/><path d="M347.0329516818747,592.6840204112232L415.3013543570414,660.3627061620355L414.4580647367984,606.5922285830602Z" fill="#5a98a1" stroke="#5a98a1"/><path d="M414.4580647367984,606.5922285830602L415.3013543570414,660.3627061620355L503.1070378785953,650.1629458088428Z" fill="#529195" stroke="#529195"/><path d="M414.4580647367984,606.5922285830602L503.1070378785953,650.1629458088428L478.9573840778321,583.9169058436528Z" fill="#509498" stroke="#509498"/><path d="M478.9573840778321,583.9169058436528L503.1070378785953,650.1629458088428L521.3095227153972,595.3555464623496Z" fill="#4a9294" stroke="#4a9294"/><path d="M521.3095227153972,595.3555464623496L503.1070378785953,650.1629458088428L575.4355321116745,598.5584845906124Z" fill="#458f8f" stroke="#458f8f"/><path d="M575.4355321116745,598.5584845906124L503.1070378785953,650.1629458088428L546.3768259212375,710.2773566506803Z" fill="#438784" stroke="#438784"/><path d="M575.4355321116745,598.5584845906124L546.3768259212375,710.2773566506803L621.5648363679647,671.5625472804531Z" fill="#3c837e" stroke="#3c837e"/><path d="M575.4355321116745,598.5584845906124L621.5648363679647,671.5625472804531L660.3111892547458,622.3968304451555Z" fill="#358582" stroke="#358582"/><path d="M660.3111892547458,622.3968304451555L621.5648363679647,671.5625472804531L636.3316765576601,679.2763074822724Z" fill="#327e79" stroke="#327e79"/><path d="M660.3111892547458,622.3968304451555L636.3316765576601,679.2763074822724L691.4501085225493,706.9249207852408Z" fill="#2d7a74" stroke="#2d7a74"/><path d="M660.3111892547458,622.3968304451555L691.4501085225493,706.9249207852408L724.2667332328856,639.2034165887162Z" fill="#287975" stroke="#287975"/><path d="M660.3111892547458,622.3968304451555L724.2667332328856,639.2034165887162L720.0790763292462,615.7866307133809Z" fill="#267f7d" stroke="#267f7d"/><path d="M720.0790763292462,615.7866307133809L724.2667332328856,639.2034165887162L781.9458378423005,646.7439849022776Z" fill="#217977" stroke="#217977"/><path d="M720.0790763292462,615.7866307133809L781.9458378423005,646.7439849022776L803.3239569924772,604.129118704237Z" fill="#1f7878" stroke="#1f7878"/><path d="M803.3239569924772,604.129118704237L781.9458378423005,646.7439849022776L866.7624369394034,674.7186985034496Z" fill="#1a6f6e" stroke="#1a6f6e"/><path d="M803.3239569924772,604.129118704237L866.7624369394034,674.7186985034496L881.8712865086272,628.4846808351576Z" fill="#166c6d" stroke="#166c6d"/><path d="M881.8712865086272,628.4846808351576L866.7624369394034,674.7186985034496L968.1448625782505,693.1262035081163Z" fill="#0f6160" stroke="#0f6160"/><path d="M881.8712865086272,628.4846808351576L968.1448625782505,693.1262035081163L1013.7971745273098,620.0698066065088Z" fill="#095f61" stroke="#095f61"/><path d="M881.8712865086272,628.4846808351576L1013.7971745273098,620.0698066065088L940.4247615979984,561.7900436632335Z" fill="#0d686b" stroke="#0d686b"/><path d="M1013.7971745273098,620.0698066065088L968.1448625782505,693.1262035081163L1035.3795724892989,685.6761238081381Z" fill="#045658" stroke="#045658"/><path d="M1013.7971745273098,620.0698066065088L1035.3795724892989,685.6761238081381L1063.292088471353,647.657101190649Z" fill="#04545a" stroke="#04545a"/><path d="M1013.7971745273098,620.0698066065088L1063.292088471353,647.657101190649L1065.2497891169041,588.6464767167345Z" fill="#055862" stroke="#055862"/><path d="M1065.2497891169041,588.6464767167345L1063.292088471353,647.657101190649L1137.827920153737,625.0973081877455Z" fill="#04525f" stroke="#04525f"/><path d="M1137.827920153737,625.0973081877455L1063.292088471353,647.657101190649L1154.0719475522637,688.0245580729097Z" fill="#044854" stroke="#044854"/><path d="M1137.827920153737,625.0973081877455L1154.0719475522637,688.0245580729097L1256.0829248549417,672.1129185827449Z" fill="#043d4e" stroke="#043d4e"/><path d="M1137.827920153737,625.0973081877455L1256.0829248549417,672.1129185827449L1196.5630584917963,571.6099530924112Z" fill="#044258" stroke="#044258"/><path d="M1196.5630584917963,571.6099530924112L1256.0829248549417,672.1129185827449L1273.462122269906,652.0189191205427Z" fill="#043a53" stroke="#043a53"/><path d="M1196.5630584917963,571.6099530924112L1273.462122269906,652.0189191205427L1266.6629166584462,584.8519555367529Z" fill="#073f58" stroke="#073f58"/><path d="M1266.6629166584462,584.8519555367529L1273.462122269906,652.0189191205427L1338.7273129820824,621.1869825692847Z" fill="#053553" stroke="#053553"/><path d="M1338.7273129820824,621.1869825692847L1273.462122269906,652.0189191205427L1336.0699119763449,651.5124870454893Z" fill="#042e4c" stroke="#042e4c"/><path d="M1338.7273129820824,621.1869825692847L1336.0699119763449,651.5124870454893L1381.2596261315048,722.0398650690913Z" fill="#042443" stroke="#042443"/><path d="M-41.253713769838214,688.4235297292471L-58.964349816553295,905.2841221867129L-19.37368607521057,793.5477275494486Z" fill="#82889c" stroke="#82889c"/><path d="M-41.253713769838214,688.4235297292471L-19.37368607521057,793.5477275494486L-15.412012276239693,750.1105195479468Z" fill="#8191a9" stroke="#8191a9"/><path d="M-41.253713769838214,688.4235297292471L-15.412012276239693,750.1105195479468L40.44581370893866,633.7820250401273Z" fill="#809ab6" stroke="#809ab6"/><path d="M40.44581370893866,633.7820250401273L-15.412012276239693,750.1105195479468L31.974781897850335,766.3157688556239Z" fill="#7f95ad" stroke="#7f95ad"/><path d="M40.44581370893866,633.7820250401273L31.974781897850335,766.3157688556239L98.22070411685854,745.643925961107Z" fill="#7c94ab" stroke="#7c94ab"/><path d="M40.44581370893866,633.7820250401273L98.22070411685854,745.643925961107L121.69461132120341,654.9388440968469Z" fill="#7a9ab3" stroke="#7a9ab3"/><path d="M121.69461132120341,654.9388440968469L98.22070411685854,745.643925961107L157.98045978602022,731.8329357784241Z" fill="#7893a7" stroke="#7893a7"/><path d="M121.69461132120341,654.9388440968469L157.98045978602022,731.8329357784241L168.57837420608848,658.4811470182613Z" fill="#7698ad" stroke="#7698ad"/><path d="M168.57837420608848,658.4811470182613L157.98045978602022,731.8329357784241L220.49710465408862,768.0530011514202Z" fill="#73909f" stroke="#73909f"/><path d="M168.57837420608848,658.4811470182613L220.49710465408862,768.0530011514202L248.94090343266726,631.1105921315029Z" fill="#6f94a5" stroke="#6f94a5"/><path d="M248.94090343266726,631.1105921315029L220.49710465408862,768.0530011514202L302.4744056351483,685.4337988412008Z" fill="#6b919d" stroke="#6b919d"/><path d="M302.4744056351483,685.4337988412008L220.49710465408862,768.0530011514202L318.83949931897223,774.4883852554485Z" fill="#68878e" stroke="#68878e"/><path d="M302.4744056351483,685.4337988412008L318.83949931897223,774.4883852554485L339.312246481888,735.9175466923043Z" fill="#63878c" stroke="#63878c"/><path d="M302.4744056351483,685.4337988412008L339.312246481888,735.9175466923043L380.81355877779424,704.287517093122Z" fill="#608a8f" stroke="#608a8f"/><path d="M415.3013543570414,660.3627061620355L380.81355877779424,704.287517093122L454.4411480119452,687.5279712220654Z" fill="#568a8c" stroke="#568a8c"/><path d="M415.3013543570414,660.3627061620355L454.4411480119452,687.5279712220654L503.1070378785953,650.1629458088428Z" fill="#508b8c" stroke="#508b8c"/><path d="M454.4411480119452,687.5279712220654L380.81355877779424,704.287517093122L467.78517808485776,749.7649013353512Z" fill="#548481" stroke="#548481"/><path d="M454.4411480119452,687.5279712220654L467.78517808485776,749.7649013353512L546.3768259212375,710.2773566506803Z" fill="#4b7f7a" stroke="#4b7f7a"/><path d="M454.4411480119452,687.5279712220654L546.3768259212375,710.2773566506803L503.1070378785953,650.1629458088428Z" fill="#498582" stroke="#498582"/><path d="M621.5648363679647,671.5625472804531L546.3768259212375,710.2773566506803L563.4422090053558,727.2078129565343Z" fill="#3d7b72" stroke="#3d7b72"/><path d="M621.5648363679647,671.5625472804531L563.4422090053558,727.2078129565343L636.3316765576601,679.2763074822724Z" fill="#377a72" stroke="#377a72"/><path d="M636.3316765576601,679.2763074822724L563.4422090053558,727.2078129565343L567.4392892094329,779.3593420926481Z" fill="#3b756a" stroke="#3b756a"/><path d="M636.3316765576601,679.2763074822724L567.4392892094329,779.3593420926481L691.4501085225493,706.9249207852408Z" fill="#337368" stroke="#337368"/><path d="M724.2667332328856,639.2034165887162L691.4501085225493,706.9249207852408L711.6583828078583,702.0325394151732Z" fill="#25736c" stroke="#25736c"/><path d="M724.2667332328856,639.2034165887162L711.6583828078583,702.0325394151732L781.9458378423005,646.7439849022776Z" fill="#22746f" stroke="#22746f"/><path d="M781.9458378423005,646.7439849022776L711.6583828078583,702.0325394151732L824.2795138480142,745.8008285192773Z" fill="#1e6963" stroke="#1e6963"/><path d="M781.9458378423005,646.7439849022776L824.2795138480142,745.8008285192773L866.7624369394034,674.7186985034496Z" fill="#196561" stroke="#196561"/><path d="M866.7624369394034,674.7186985034496L824.2795138480142,745.8008285192773L902.040025648661,748.82797986269Z" fill="#145b54" stroke="#145b54"/><path d="M866.7624369394034,674.7186985034496L902.040025648661,748.82797986269L941.0785186551511,718.3505111783743Z" fill="#105853" stroke="#105853"/><path d="M866.7624369394034,674.7186985034496L941.0785186551511,718.3505111783743L968.1448625782505,693.1262035081163Z" fill="#0d5956" stroke="#0d5956"/><path d="M968.1448625782505,693.1262035081163L941.0785186551511,718.3505111783743L1003.8327810652554,768.7994349822402Z" fill="#074e49" stroke="#074e49"/><path d="M968.1448625782505,693.1262035081163L1003.8327810652554,768.7994349822402L1035.3795724892989,685.6761238081381Z" fill="#044d4a" stroke="#044d4a"/><path d="M1035.3795724892989,685.6761238081381L1003.8327810652554,768.7994349822402L1042.7141551859677,782.6734932865947Z" fill="#044440" stroke="#044440"/><path d="M1035.3795724892989,685.6761238081381L1042.7141551859677,782.6734932865947L1099.9512694124132,729.577646327205Z" fill="#044242" stroke="#044242"/><path d="M1035.3795724892989,685.6761238081381L1099.9512694124132,729.577646327205L1063.292088471353,647.657101190649Z" fill="#04494e" stroke="#04494e"/><path d="M1063.292088471353,647.657101190649L1099.9512694124132,729.577646327205L1154.0719475522637,688.0245580729097Z" fill="#04434c" stroke="#04434c"/><path d="M1154.0719475522637,688.0245580729097L1099.9512694124132,729.577646327205L1151.0570490946993,728.1886201743037Z" fill="#043a42" stroke="#043a42"/><path d="M1154.0719475522637,688.0245580729097L1151.0570490946993,728.1886201743037L1257.9993002479896,743.3693413035944Z" fill="#04323e" stroke="#04323e"/><path d="M1154.0719475522637,688.0245580729097L1257.9993002479896,743.3693413035944L1256.0829248549417,672.1129185827449Z" fill="#043041" stroke="#043041"/><path d="M1256.0829248549417,672.1129185827449L1257.9993002479896,743.3693413035944L1285.2383680911735,760.8674581106752Z" fill="#042538" stroke="#042538"/><path d="M1256.0829248549417,672.1129185827449L1285.2383680911735,760.8674581106752L1336.0699119763449,651.5124870454893Z" fill="#04273f" stroke="#04273f"/><path d="M1256.0829248549417,672.1129185827449L1336.0699119763449,651.5124870454893L1273.462122269906,652.0189191205427Z" fill="#042f49" stroke="#042f49"/><path d="M1336.0699119763449,651.5124870454893L1285.2383680911735,760.8674581106752L1381.2596261315048,722.0398650690913Z" fill="#041e38" stroke="#041e38"/><path d="M-15.412012276239693,750.1105195479468L-19.37368607521057,793.5477275494486L31.974781897850335,766.3157688556239Z" fill="#808ba0" stroke="#808ba0"/><path d="M31.974781897850335,766.3157688556239L-19.37368607521057,793.5477275494486L33.01050685625523,799.478673924692Z" fill="#7f889a" stroke="#7f889a"/><path d="M31.974781897850335,766.3157688556239L33.01050685625523,799.478673924692L98.22070411685854,745.643925961107Z" fill="#7c8a9c" stroke="#7c8a9c"/><path d="M98.22070411685854,745.643925961107L33.01050685625523,799.478673924692L77.66895678639412,853.1724717291072Z" fill="#7b8493" stroke="#7b8493"/><path d="M98.22070411685854,745.643925961107L77.66895678639412,853.1724717291072L136.43913946393877,829.0644268197939Z" fill="#79828e" stroke="#79828e"/><path d="M98.22070411685854,745.643925961107L136.43913946393877,829.0644268197939L157.98045978602022,731.8329357784241Z" fill="#778997" stroke="#778997"/><path d="M157.98045978602022,731.8329357784241L136.43913946393877,829.0644268197939L192.28893318679184,785.7664335398003Z" fill="#758590" stroke="#758590"/><path d="M157.98045978602022,731.8329357784241L192.28893318679184,785.7664335398003L220.49710465408862,768.0530011514202Z" fill="#728792" stroke="#728792"/><path d="M220.49710465408862,768.0530011514202L192.28893318679184,785.7664335398003L237.03284182958305,801.2077548345551Z" fill="#6f8289" stroke="#6f8289"/><path d="M220.49710465408862,768.0530011514202L237.03284182958305,801.2077548345551L318.83949931897223,774.4883852554485Z" fill="#6a8185" stroke="#6a8185"/><path d="M339.312246481888,735.9175466923043L318.83949931897223,774.4883852554485L406.61478856392205,835.9272222882137Z" fill="#5e7c79" stroke="#5e7c79"/><path d="M339.312246481888,735.9175466923043L406.61478856392205,835.9272222882137L443.5424471311271,781.6806530486792Z" fill="#597973" stroke="#597973"/><path d="M339.312246481888,735.9175466923043L443.5424471311271,781.6806530486792L380.81355877779424,704.287517093122Z" fill="#5a8180" stroke="#5a8180"/><path d="M380.81355877779424,704.287517093122L443.5424471311271,781.6806530486792L467.78517808485776,749.7649013353512Z" fill="#547e79" stroke="#547e79"/><path d="M467.78517808485776,749.7649013353512L443.5424471311271,781.6806530486792L549.4697158588096,778.0075608603656Z" fill="#4b756b" stroke="#4b756b"/><path d="M467.78517808485776,749.7649013353512L549.4697158588096,778.0075608603656L546.3768259212375,710.2773566506803Z" fill="#46776d" stroke="#46776d"/><path d="M546.3768259212375,710.2773566506803L549.4697158588096,778.0075608603656L563.4422090053558,727.2078129565343Z" fill="#41766b" stroke="#41766b"/><path d="M563.4422090053558,727.2078129565343L549.4697158588096,778.0075608603656L567.4392892094329,779.3593420926481Z" fill="#407164" stroke="#407164"/><path d="M691.4501085225493,706.9249207852408L567.4392892094329,779.3593420926481L655.4989756345749,825.1898786881939Z" fill="#32695a" stroke="#32695a"/><path d="M691.4501085225493,706.9249207852408L655.4989756345749,825.1898786881939L721.7803983194754,836.7368670254946Z" fill="#296151" stroke="#296151"/><path d="M691.4501085225493,706.9249207852408L721.7803983194754,836.7368670254946L711.6583828078583,702.0325394151732Z" fill="#25675a" stroke="#25675a"/><path d="M711.6583828078583,702.0325394151732L721.7803983194754,836.7368670254946L824.1102939341217,776.2169708777219Z" fill="#205e50" stroke="#205e50"/><path d="M711.6583828078583,702.0325394151732L824.1102939341217,776.2169708777219L824.2795138480142,745.8008285192773Z" fill="#1d6055" stroke="#1d6055"/><path d="M824.2795138480142,745.8008285192773L824.1102939341217,776.2169708777219L902.040025648661,748.82797986269Z" fill="#16564c" stroke="#16564c"/><path d="M902.040025648661,748.82797986269L824.1102939341217,776.2169708777219L856.1535885110497,826.3992815446109Z" fill="#154f44" stroke="#154f44"/><path d="M902.040025648661,748.82797986269L856.1535885110497,826.3992815446109L963.896462213248,795.5477898893878Z" fill="#0f4a3e" stroke="#0f4a3e"/><path d="M902.040025648661,748.82797986269L963.896462213248,795.5477898893878L941.0785186551511,718.3505111783743Z" fill="#0c4d45" stroke="#0c4d45"/><path d="M941.0785186551511,718.3505111783743L963.896462213248,795.5477898893878L1003.8327810652554,768.7994349822402Z" fill="#074841" stroke="#074841"/><path d="M1003.8327810652554,768.7994349822402L963.896462213248,795.5477898893878L1042.7141551859677,782.6734932865947Z" fill="#044138" stroke="#044138"/><path d="M1099.9512694124132,729.577646327205L1042.7141551859677,782.6734932865947L1071.6933113150299,817.5775069734082Z" fill="#043835" stroke="#043835"/><path d="M1099.9512694124132,729.577646327205L1071.6933113150299,817.5775069734082L1172.975577795878,791.226860425435Z" fill="#043132" stroke="#043132"/><path d="M1099.9512694124132,729.577646327205L1172.975577795878,791.226860425435L1151.0570490946993,728.1886201743037Z" fill="#043339" stroke="#043339"/><path d="M1151.0570490946993,728.1886201743037L1172.975577795878,791.226860425435L1194.1160672372207,788.3463553255424Z" fill="#042a31" stroke="#042a31"/><path d="M1151.0570490946993,728.1886201743037L1194.1160672372207,788.3463553255424L1257.9993002479896,743.3693413035944Z" fill="#042934" stroke="#042934"/><path d="M1257.9993002479896,743.3693413035944L1194.1160672372207,788.3463553255424L1269.5835829749703,827.4029347831383Z" fill="#041d29" stroke="#041d29"/><path d="M1257.9993002479896,743.3693413035944L1269.5835829749703,827.4029347831383L1285.2383680911735,760.8674581106752Z" fill="#041b29" stroke="#041b29"/><path d="M1285.2383680911735,760.8674581106752L1269.5835829749703,827.4029347831383L1335.322579620406,776.8620947981253Z" fill="#041524" stroke="#041524"/><path d="M1285.2383680911735,760.8674581106752L1335.322579620406,776.8620947981253L1381.2596261315048,722.0398650690913Z" fill="#04162c" stroke="#04162c"/><path d="M1381.2596261315048,722.0398650690913L1335.322579620406,776.8620947981253L1380.5484520653263,899.3604707708582Z" fill="#04091d" stroke="#04091d"/><path d="M-19.37368607521057,793.5477275494486L-58.964349816553295,905.2841221867129L40.11363646760583,843.1464052647352Z" fill="#817f8c" stroke="#817f8c"/><path d="M-19.37368607521057,793.5477275494486L40.11363646760583,843.1464052647352L33.01050685625523,799.478673924692Z" fill="#7f8393" stroke="#7f8393"/><path d="M33.01050685625523,799.478673924692L40.11363646760583,843.1464052647352L77.66895678639412,853.1724717291072Z" fill="#7d7f8b" stroke="#7d7f8b"/><path d="M136.43913946393877,829.0644268197939L77.66895678639412,853.1724717291072L169.04246850963682,863.6684073954821Z" fill="#787b81" stroke="#787b81"/><path d="M136.43913946393877,829.0644268197939L169.04246850963682,863.6684073954821L192.28893318679184,785.7664335398003Z" fill="#747c84" stroke="#747c84"/><path d="M192.28893318679184,785.7664335398003L169.04246850963682,863.6684073954821L237.03284182958305,801.2077548345551Z" fill="#717d82" stroke="#717d82"/><path d="M237.03284182958305,801.2077548345551L169.04246850963682,863.6684073954821L249.89470732025802,896.3332444764674Z" fill="#6f7876" stroke="#6f7876"/><path d="M237.03284182958305,801.2077548345551L249.89470732025802,896.3332444764674L317.8309757867828,891.3350229049101Z" fill="#69756e" stroke="#69756e"/><path d="M237.03284182958305,801.2077548345551L317.8309757867828,891.3350229049101L318.83949931897223,774.4883852554485Z" fill="#677876" stroke="#677876"/><path d="M318.83949931897223,774.4883852554485L317.8309757867828,891.3350229049101L371.3781402511522,855.0160254547372Z" fill="#61726c" stroke="#61726c"/><path d="M318.83949931897223,774.4883852554485L371.3781402511522,855.0160254547372L406.61478856392205,835.9272222882137Z" fill="#5d746d" stroke="#5d746d"/><path d="M406.61478856392205,835.9272222882137L371.3781402511522,855.0160254547372L444.7275693221018,850.0796318538487Z" fill="#576e60" stroke="#576e60"/><path d="M406.61478856392205,835.9272222882137L444.7275693221018,850.0796318538487L443.5424471311271,781.6806530486792Z" fill="#547064" stroke="#547064"/><path d="M443.5424471311271,781.6806530486792L444.7275693221018,850.0796318538487L515.5285115763545,875.209385025315Z" fill="#4e6b5b" stroke="#4e6b5b"/><path d="M443.5424471311271,781.6806530486792L515.5285115763545,875.209385025315L549.4697158588096,778.0075608603656Z" fill="#496d5e" stroke="#496d5e"/><path d="M549.4697158588096,778.0075608603656L515.5285115763545,875.209385025315L567.4392892094329,779.3593420926481Z" fill="#426a58" stroke="#426a58"/><path d="M567.4392892094329,779.3593420926481L515.5285115763545,875.209385025315L588.033433762379,890.9582967590541Z" fill="#40634c" stroke="#40634c"/><path d="M567.4392892094329,779.3593420926481L588.033433762379,890.9582967590541L655.4989756345749,825.1898786881939Z" fill="#38614c" stroke="#38614c"/><path d="M655.4989756345749,825.1898786881939L588.033433762379,890.9582967590541L657.7201106185094,889.5103256674483Z" fill="#335d40" stroke="#335d40"/><path d="M655.4989756345749,825.1898786881939L657.7201106185094,889.5103256674483L723.4250726960599,841.1731559168547Z" fill="#2b5940" stroke="#2b5940"/><path d="M655.4989756345749,825.1898786881939L723.4250726960599,841.1731559168547L721.7803983194754,836.7368670254946Z" fill="#275843" stroke="#275843"/><path d="M721.7803983194754,836.7368670254946L723.4250726960599,841.1731559168547L824.1102939341217,776.2169708777219Z" fill="#205543" stroke="#205543"/><path d="M824.1102939341217,776.2169708777219L723.4250726960599,841.1731559168547L822.6793331997469,870.0046238107607Z" fill="#1c4f3d" stroke="#1c4f3d"/><path d="M824.1102939341217,776.2169708777219L822.6793331997469,870.0046238107607L856.1535885110497,826.3992815446109Z" fill="#184b3b" stroke="#184b3b"/><path d="M856.1535885110497,826.3992815446109L822.6793331997469,870.0046238107607L876.7473450256512,869.0593780456111Z" fill="#164631" stroke="#164631"/><path d="M856.1535885110497,826.3992815446109L876.7473450256512,869.0593780456111L963.896462213248,795.5477898893878Z" fill="#104333" stroke="#104333"/><path d="M963.896462213248,795.5477898893878L876.7473450256512,869.0593780456111L967.4813360236585,893.7717198785394Z" fill="#0c3d2a" stroke="#0c3d2a"/><path d="M963.896462213248,795.5477898893878L967.4813360236585,893.7717198785394L1053.677889585495,845.2968091974035Z" fill="#043727" stroke="#043727"/><path d="M963.896462213248,795.5477898893878L1053.677889585495,845.2968091974035L1042.7141551859677,782.6734932865947Z" fill="#043930" stroke="#043930"/><path d="M1042.7141551859677,782.6734932865947L1053.677889585495,845.2968091974035L1071.6933113150299,817.5775069734082Z" fill="#04332c" stroke="#04332c"/><path d="M1071.6933113150299,817.5775069734082L1053.677889585495,845.2968091974035L1139.0925027308986,904.8785442840308Z" fill="#04291e" stroke="#04291e"/><path d="M1071.6933113150299,817.5775069734082L1139.0925027308986,904.8785442840308L1172.975577795878,791.226860425435Z" fill="#042421" stroke="#042421"/><path d="M1172.975577795878,791.226860425435L1139.0925027308986,904.8785442840308L1193.546750341542,867.7258826196194Z" fill="#041e1a" stroke="#041e1a"/><path d="M1172.975577795878,791.226860425435L1193.546750341542,867.7258826196194L1194.1160672372207,788.3463553255424Z" fill="#042023" stroke="#042023"/><path d="M1194.1160672372207,788.3463553255424L1193.546750341542,867.7258826196194L1269.5835829749703,827.4029347831383Z" fill="#04191e" stroke="#04191e"/><path d="M1269.5835829749703,827.4029347831383L1193.546750341542,867.7258826196194L1272.7142869317904,901.6745966291055Z" fill="#041312" stroke="#041312"/><path d="M1269.5835829749703,827.4029347831383L1272.7142869317904,901.6745966291055L1380.5484520653263,899.3604707708582Z" fill="#040a0c" stroke="#040a0c"/><path d="M1269.5835829749703,827.4029347831383L1380.5484520653263,899.3604707708582L1335.322579620406,776.8620947981253Z" fill="#040816" stroke="#040816"/><path d="M-58.964349816553295,905.2841221867129L1004.8994997413829,906.2508975015953L249.89470732025802,896.3332444764674Z" fill="#586e52" stroke="#586e52"/><path d="M-58.964349816553295,905.2841221867129L249.89470732025802,896.3332444764674L169.04246850963682,863.6684073954821Z" fill="#787b76" stroke="#787b76"/><path d="M-58.964349816553295,905.2841221867129L169.04246850963682,863.6684073954821L77.66895678639412,853.1724717291072Z" fill="#7c7d7f" stroke="#7c7d7f"/><path d="M-58.964349816553295,905.2841221867129L77.66895678639412,853.1724717291072L40.11363646760583,843.1464052647352Z" fill="#7f7e84" stroke="#7f7e84"/><path d="M249.89470732025802,896.3332444764674L1004.8994997413829,906.2508975015953L588.033433762379,890.9582967590541Z" fill="#365e39" stroke="#365e39"/><path d="M249.89470732025802,896.3332444764674L588.033433762379,890.9582967590541L317.8309757867828,891.3350229049101Z" fill="#5a6f57" stroke="#5a6f57"/><path d="M317.8309757867828,891.3350229049101L588.033433762379,890.9582967590541L515.5285115763545,875.209385025315Z" fill="#4d694d" stroke="#4d694d"/><path d="M317.8309757867828,891.3350229049101L515.5285115763545,875.209385025315L444.7275693221018,850.0796318538487Z" fill="#556d57" stroke="#556d57"/><path d="M317.8309757867828,891.3350229049101L444.7275693221018,850.0796318538487L371.3781402511522,855.0160254547372Z" fill="#5b6f5f" stroke="#5b6f5f"/><path d="M588.033433762379,890.9582967590541L1004.8994997413829,906.2508975015953L657.7201106185094,889.5103256674483Z" fill="#21512e" stroke="#21512e"/><path d="M657.7201106185094,889.5103256674483L1004.8994997413829,906.2508975015953L967.4813360236585,893.7717198785394Z" fill="#134323" stroke="#134323"/><path d="M657.7201106185094,889.5103256674483L967.4813360236585,893.7717198785394L822.6793331997469,870.0046238107607Z" fill="#1a4a2b" stroke="#1a4a2b"/><path d="M657.7201106185094,889.5103256674483L822.6793331997469,870.0046238107607L723.4250726960599,841.1731559168547Z" fill="#225337" stroke="#225337"/><path d="M822.6793331997469,870.0046238107607L967.4813360236585,893.7717198785394L876.7473450256512,869.0593780456111Z" fill="#114227" stroke="#114227"/><path d="M967.4813360236585,893.7717198785394L1004.8994997413829,906.2508975015953L1053.677889585495,845.2968091974035Z" fill="#04351c" stroke="#04351c"/><path d="M1004.8994997413829,906.2508975015953L1139.0925027308986,904.8785442840308L1053.677889585495,845.2968091974035Z" fill="#042d18" stroke="#042d18"/><path d="M1139.0925027308986,904.8785442840308L1380.5484520653263,899.3604707708582L1272.7142869317904,901.6745966291055Z" fill="#041007" stroke="#041007"/><path d="M1139.0925027308986,904.8785442840308L1272.7142869317904,901.6745966291055L1193.546750341542,867.7258826196194Z" fill="#04190e" stroke="#04190e"/></g></svg>
